<?xml version="1.0" encoding="UTF-8" standalone="no"?>
<svg
   xmlns:dc="http://purl.org/dc/elements/1.1/"
   xmlns:cc="http://creativecommons.org/ns#"
   xmlns:rdf="http://www.w3.org/1999/02/22-rdf-syntax-ns#"
   xmlns:svg="http://www.w3.org/2000/svg"
   xmlns="http://www.w3.org/2000/svg"
   xmlns:sodipodi="http://sodipodi.sourceforge.net/DTD/sodipodi-0.dtd"
   xmlns:inkscape="http://www.inkscape.org/namespaces/inkscape"
   inkscape:version="1.0 (4035a4f, 2020-05-01)"
   sodipodi:docname="intro-controller_UPDATED.svg"
   id="svg774"
   version="1.1"
   viewBox="0 0 610.751 437.355"
   height="154.289mm"
   width="215.459mm">
  <metadata
     id="metadata778">
    <rdf:RDF>
      <cc:Work
         rdf:about="">
        <dc:format>image/svg+xml</dc:format>
        <dc:type
           rdf:resource="http://purl.org/dc/dcmitype/StillImage" />
        <dc:title></dc:title>
        <dc:subject>
          <rdf:Bag>
            <rdf:li>intro-controller</rdf:li>
          </rdf:Bag>
        </dc:subject>
      </cc:Work>
    </rdf:RDF>
  </metadata>
  <sodipodi:namedview
     inkscape:current-layer="svg774"
     inkscape:window-maximized="0"
     inkscape:window-y="25"
     inkscape:window-x="0"
     inkscape:cy="291.56977"
     inkscape:cx="407.16661"
     inkscape:zoom="1.2604187"
     showgrid="false"
     id="namedview776"
     inkscape:window-height="480"
     inkscape:window-width="717"
     inkscape:pageshadow="2"
     inkscape:pageopacity="0"
     guidetolerance="10"
     gridtolerance="10"
     objecttolerance="10"
     borderopacity="1"
     bordercolor="#666666"
     pagecolor="#ffffff" />
  <defs
     id="defs12">
    <style
       id="style10">
      .cls-1, .cls-10, .cls-11, .cls-2, .cls-3, .cls-4, .cls-5 {
        fill: none;
      }

      .cls-1, .cls-11, .cls-2, .cls-3, .cls-4, .cls-5 {
        stroke: #06c;
      }

      .cls-1, .cls-10, .cls-11, .cls-12, .cls-2, .cls-3, .cls-4, .cls-5 {
        stroke-miterlimit: 10;
      }

      .cls-2 {
        stroke-dasharray: 2.929 2.929 2.929 2.929;
      }

      .cls-3 {
        stroke-dasharray: 2.929 2.929 2.929 2.929 2.929 2.929;
      }

      .cls-4 {
        stroke-dasharray: 2.974 2.974 2.974 2.974;
      }

      .cls-5 {
        stroke-dasharray: 2.974 2.974 2.974 2.974 2.974 2.974;
      }

      .cls-6 {
        fill: #d9e8f7;
      }

      .cls-12, .cls-7 {
        fill: #fff;
      }

      .cls-8 {
        fill: #99c2eb;
      }

      .cls-9 {
        fill: #161616;
      }

      .cls-10 {
        stroke: #161616;
      }

      .cls-11 {
        stroke-dasharray: 3 3 3 3 3 3;
      }

      .cls-12 {
        stroke: #99c2eb;
      }
    </style>
  </defs>
  <g
     data-name="Layer 1"
     id="Layer_1">
    <g
       id="g38">
      <polyline
         id="polyline14"
         points="478.643 231.026 478.643 232.526 477.143 232.526"
         class="cls-1" />
      <line
         id="line16"
         y2="232.526"
         x2="463.964"
         y1="232.526"
         x1="474.214"
         class="cls-2" />
      <line
         id="line18"
         y2="232.526"
         x2="130.111"
         y1="232.526"
         x1="462.5"
         class="cls-3" />
      <polyline
         id="polyline20"
         points="128.646 232.526 127.146 232.526 127.146 231.026"
         class="cls-1" />
      <line
         id="line22"
         y2="217.641"
         x2="127.146"
         y1="228.052"
         x1="127.146"
         class="cls-4" />
      <line
         id="line24"
         y2="3.487"
         x2="127.146"
         y1="216.154"
         x1="127.146"
         class="cls-5" />
      <polyline
         id="polyline26"
         points="127.146 2 127.146 0.5 128.646 0.5"
         class="cls-1" />
      <line
         id="line28"
         y2="0.5"
         x2="141.825"
         y1="0.5"
         x1="131.575"
         class="cls-2" />
      <line
         id="line30"
         y2="0.5"
         x2="475.678"
         y1="0.5"
         x1="143.289"
         class="cls-3" />
      <polyline
         id="polyline32"
         points="477.143 0.5 478.643 0.5 478.643 2"
         class="cls-1" />
      <line
         id="line34"
         y2="15.385"
         x2="478.643"
         y1="4.974"
         x1="478.643"
         class="cls-4" />
      <line
         id="line36"
         y2="229.539"
         x2="478.643"
         y1="16.872"
         x1="478.643"
         class="cls-5" />
    </g>
    <path
       id="path40"
       transform="translate(-11.264 -14.765)"
       d="M152.584,43.611h323.15V193.433H152.584Z"
       class="cls-6" />
    <path
       id="path42"
       transform="translate(-11.264 -14.765)"
       d="M430.178,16.729a.62.62,0,1,0-.62-.619A.61.61,0,0,0,430.178,16.729Z" />
    <g
       id="g74">
      <g
         id="g48">
        <rect
           id="rect44"
           height="78.37"
           width="78.37"
           y="193.341"
           x="209.851"
           class="cls-7" />
        <path
           id="path46"
           transform="translate(-11.264 -14.765)"
           d="M298.986,208.606v77.37h-77.37v-77.37h77.37m1-1h-79.37v79.37h79.37v-79.37Z"
           class="cls-8" />
      </g>
      <g
         id="g72">
        <g
           id="g60">
          <path
             id="path50"
             transform="translate(-11.264 -14.765)"
             d="M243.916,254.8h1.219l1.039,5.127,1.5-5.127h1.14l1.5,5.117,1.039-5.117h1.18l-1.53,7h-1.249l-1.529-5.287-1.529,5.287h-1.249Z"
             class="cls-9" />
          <path
             id="path52"
             transform="translate(-11.264 -14.765)"
             d="M253.375,259.293a2.473,2.473,0,0,1,2.439-2.589,2.407,2.407,0,0,1,2.368,2.589v.27h-3.7a1.533,1.533,0,0,0,1.5,1.4,1.662,1.662,0,0,0,1.189-.47l.74.669a2.9,2.9,0,0,1-1.979.731A2.542,2.542,0,0,1,253.375,259.293Zm3.738-.429a1.362,1.362,0,0,0-1.309-1.24,1.345,1.345,0,0,0-1.309,1.24Z"
             class="cls-9" />
          <path
             id="path54"
             transform="translate(-11.264 -14.765)"
             d="M259.335,254.656l1.129-.19v2.988a1.953,1.953,0,0,1,1.539-.71,2.563,2.563,0,0,1-.069,5.1,1.9,1.9,0,0,1-1.489-.689v.64h-1.11Zm3.818,4.637a1.513,1.513,0,0,0-1.489-1.6,1.488,1.488,0,0,0-1.2.558v2.09a1.544,1.544,0,0,0,1.2.559A1.511,1.511,0,0,0,263.153,259.293Z"
             class="cls-9" />
          <path
             id="path56"
             transform="translate(-11.264 -14.765)"
             d="M267.7,258.793v-4h1.2v4c0,1.23.68,2.03,1.739,2.03s1.74-.8,1.74-2.03v-4h1.2v4a2.943,2.943,0,1,1-5.877,0Z"
             class="cls-9" />
          <path
             id="path58"
             transform="translate(-11.264 -14.765)"
             d="M275.065,254.8h1.2v7h-1.2Z"
             class="cls-9" />
        </g>
        <g
           id="g70">
          <path
             id="path62"
             transform="translate(-11.264 -14.765)"
             d="M247.325,246.161h24a.625.625,0,0,0,.625-.625v-15a.624.624,0,0,0-.625-.625h-9a.625.625,0,0,0,0,1.25H270.7v13.75H247.95v-13.75h8.375a.625.625,0,0,0,0-1.25h-9a.625.625,0,0,0-.625.625v15A.625.625,0,0,0,247.325,246.161Z" />
          <path
             id="path64"
             transform="translate(-11.264 -14.765)"
             d="M273.325,247.911h-28a.625.625,0,0,0,0,1.25h28a.625.625,0,0,0,0-1.25Z" />
          <path
             id="path66"
             transform="translate(-11.264 -14.765)"
             d="M256.45,235.536v4.375H255.2v-2.5a.625.625,0,0,0-1.25,0v2.5H252.7v-1.25a.625.625,0,0,0-1.25,0v1.25h-.625a.625.625,0,0,0,0,1.25h7.5a.625.625,0,0,0,0-1.25H257.7v-4.375a.625.625,0,0,0-1.25,0Z" />
          <path
             id="path68"
             transform="translate(-11.264 -14.765)"
             d="M261.825,238.661h.459a2.586,2.586,0,0,0,.3.728l-.326.326a.625.625,0,0,0,.884.884l.326-.326a2.586,2.586,0,0,0,.728.3v.459a.625.625,0,0,0,1.25,0v-.459a2.592,2.592,0,0,0,.729-.3l.325.326a.625.625,0,0,0,.884-.884l-.325-.326a2.616,2.616,0,0,0,.3-.728h.458a.625.625,0,0,0,0-1.25h-.458a2.622,2.622,0,0,0-.3-.729l.325-.326c.582-.565-.319-1.465-.884-.883l-.325.325a2.622,2.622,0,0,0-.729-.3v-.458a.625.625,0,0,0-1.25,0v.458a2.616,2.616,0,0,0-.728.3l-.326-.325c-.565-.582-1.466.319-.884.883l.326.326a2.592,2.592,0,0,0-.3.729h-.459A.625.625,0,0,0,261.825,238.661Zm3-2a1.375,1.375,0,0,1,0,2.75A1.375,1.375,0,0,1,264.825,236.661Z" />
        </g>
      </g>
    </g>
    <g
       id="g108">
      <g
         id="g80">
        <rect
           id="rect76"
           height="78.37"
           width="78.37"
           y="193.341"
           x="317.568"
           class="cls-7" />
        <path
           id="path78"
           transform="translate(-11.264 -14.765)"
           d="M406.7,208.606v77.37h-77.37v-77.37H406.7m1-1h-79.37v79.37H407.7v-79.37Z"
           class="cls-8" />
      </g>
      <g
         id="g106">
        <g
           id="g88">
          <path
             id="path82"
             transform="translate(-11.264 -14.765)"
             d="M362.555,255.849h1.39l2.708,7h-1.289l-.72-1.959h-2.868l-.72,1.959h-1.249Zm1.759,4.1-1.1-2.959-1.09,2.959Z"
             class="cls-9" />
          <path
             id="path84"
             transform="translate(-11.264 -14.765)"
             d="M367.556,255.849h3.128a2.171,2.171,0,1,1,0,4.328h-1.929v2.668h-1.2ZM370.5,259.2a1.177,1.177,0,1,0,.009-2.338h-1.749V259.2Z"
             class="cls-9" />
          <path
             id="path86"
             transform="translate(-11.264 -14.765)"
             d="M374.3,255.849h1.2v7h-1.2Z"
             class="cls-9" />
        </g>
        <g
           id="g104">
          <path
             id="path90"
             transform="translate(-11.264 -14.765)"
             d="M379.017,244.828a2.623,2.623,0,0,0-2.541,2h-1.2l-1.817-1.817c-.565-.582-1.466.319-.884.884l2,2a.627.627,0,0,0,.442.183h1.459a2.621,2.621,0,1,0,2.541-3.25Zm0,4a1.375,1.375,0,0,1,0-2.75A1.375,1.375,0,0,1,379.017,248.828Z" />
          <path
             id="path92"
             transform="translate(-11.264 -14.765)"
             d="M372.642,243.453v-8a.625.625,0,0,0-.625-.625h-8a.625.625,0,0,0-.625.625v8a.625.625,0,0,0,.625.625h8A.625.625,0,0,0,372.642,243.453Zm-1.25-.625h-6.75v-6.75h6.75Z" />
          <path
             id="path94"
             transform="translate(-11.264 -14.765)"
             d="M381.017,236.828h-4a.625.625,0,0,0-.625.625v1.375h-2.375a.625.625,0,0,0,0,1.25h2.375v1.375a.625.625,0,0,0,.625.625h4a.625.625,0,0,0,.625-.625v-4A.625.625,0,0,0,381.017,236.828Zm-.625,4h-2.75v-2.75h2.75Z" />
          <path
             id="path96"
             transform="translate(-11.264 -14.765)"
             d="M373.017,234.078a.623.623,0,0,0,.442-.183l1.817-1.817h1.2a2.621,2.621,0,1,0,0-1.25h-1.459a.627.627,0,0,0-.442.183l-2,2A.63.63,0,0,0,373.017,234.078Zm6-4a1.375,1.375,0,0,1,0,2.75A1.375,1.375,0,0,1,379.017,230.078Z" />
          <path
             id="path98"
             transform="translate(-11.264 -14.765)"
             d="M357.017,234.078a2.625,2.625,0,0,0,2.542-2h1.2l1.817,1.817a.625.625,0,0,0,.884-.884l-2-2a.625.625,0,0,0-.442-.183h-1.458a2.622,2.622,0,1,0-2.542,3.25Zm0-4a1.375,1.375,0,0,1,0,2.75A1.375,1.375,0,0,1,357.017,230.078Z" />
          <path
             id="path100"
             transform="translate(-11.264 -14.765)"
             d="M355.017,242.078h4a.625.625,0,0,0,.625-.625v-1.375h2.375a.625.625,0,0,0,0-1.25h-2.375v-1.375a.625.625,0,0,0-.625-.625h-4a.625.625,0,0,0-.625.625v4A.625.625,0,0,0,355.017,242.078Zm.625-4h2.75v2.75h-2.75Z" />
          <path
             id="path102"
             transform="translate(-11.264 -14.765)"
             d="M362.575,245.011l-1.817,1.817h-1.2a2.621,2.621,0,1,0,0,1.25h1.458a.625.625,0,0,0,.442-.183l2-2C364.041,245.33,363.14,244.429,362.575,245.011Zm-5.558,3.817a1.375,1.375,0,0,1,0-2.75A1.375,1.375,0,0,1,357.017,248.828Z" />
        </g>
      </g>
    </g>
    <g
       id="g174">
      <g
         id="g114">
        <rect
           id="rect110"
           height="78.37"
           width="78.37"
           y="57.023"
           x="263.709"
           class="cls-7" />
        <path
           id="path112"
           transform="translate(-11.264 -14.765)"
           d="M352.844,72.288v77.37h-77.37V72.288h77.37m1-1h-79.37v79.37h79.37V71.288Z"
           class="cls-8" />
      </g>
      <g
         id="g172">
        <g
           id="g132">
          <path
             id="path116"
             transform="translate(-11.264 -14.765)"
             d="M295.7,122.892h1.389l2.708,7h-1.289l-.72-1.959h-2.868l-.719,1.959h-1.249Zm1.758,4.1-1.1-2.958-1.09,2.958Z"
             class="cls-9" />
          <path
             id="path118"
             transform="translate(-11.264 -14.765)"
             d="M300.564,124.881h1.109v.709a1.931,1.931,0,0,1,1.559-.749,2.563,2.563,0,0,1-.069,5.1,1.885,1.885,0,0,1-1.47-.64v2.679h-1.129Zm3.817,2.509a1.514,1.514,0,0,0-1.489-1.6,1.488,1.488,0,0,0-1.2.56v2.089a1.547,1.547,0,0,0,1.2.559A1.51,1.51,0,0,0,304.381,127.39Z"
             class="cls-9" />
          <path
             id="path120"
             transform="translate(-11.264 -14.765)"
             d="M306.674,124.881h1.11v.709a1.929,1.929,0,0,1,1.558-.749,2.563,2.563,0,0,1-.069,5.1,1.887,1.887,0,0,1-1.47-.64v2.679h-1.129Zm3.818,2.509a1.515,1.515,0,0,0-1.49-1.6,1.488,1.488,0,0,0-1.2.56v2.089A1.547,1.547,0,0,0,309,129,1.511,1.511,0,0,0,310.492,127.39Z"
             class="cls-9" />
          <path
             id="path122"
             transform="translate(-11.264 -14.765)"
             d="M312.784,124.881h1.13v1.079a1.5,1.5,0,0,1,1.378-1.169,1.339,1.339,0,0,1,.49.1v.989a1.817,1.817,0,0,0-.619-.12,1.364,1.364,0,0,0-1.249.83v3.3h-1.13Z"
             class="cls-9" />
          <path
             id="path124"
             transform="translate(-11.264 -14.765)"
             d="M316.484,127.39A2.515,2.515,0,1,1,319,129.978,2.494,2.494,0,0,1,316.484,127.39Zm3.918,0a1.42,1.42,0,1,0-1.4,1.629A1.486,1.486,0,0,0,320.4,127.39Z"
             class="cls-9" />
          <path
             id="path126"
             transform="translate(-11.264 -14.765)"
             d="M322.093,124.881h1.23l1.4,3.638,1.39-3.638h1.179l-2.059,5.007h-1.1Z"
             class="cls-9" />
          <path
             id="path128"
             transform="translate(-11.264 -14.765)"
             d="M327.843,128.45c0-.9.739-1.47,1.919-1.47a2.935,2.935,0,0,1,1.35.32v-.56c0-.66-.38-1-1.15-1a3.47,3.47,0,0,0-1.459.389l-.4-.819a4.953,4.953,0,0,1,2.079-.51c1.31,0,2.049.659,2.049,1.819v3.268h-1.119v-.52a2.022,2.022,0,0,1-1.489.61A1.6,1.6,0,0,1,327.843,128.45Zm2.089.729a1.744,1.744,0,0,0,1.18-.42v-.809a2.582,2.582,0,0,0-1.15-.241c-.649,0-1.059.27-1.059.72S329.3,129.179,329.932,129.179Z"
             class="cls-9" />
          <path
             id="path130"
             transform="translate(-11.264 -14.765)"
             d="M333.6,122.722l1.13-.2v7.365H333.6Z"
             class="cls-9" />
        </g>
        <g
           id="g170">
          <path
             id="path134"
             transform="translate(-11.264 -14.765)"
             d="M309.033,110.093a3.865,3.865,0,1,0-4.748,0,7.131,7.131,0,0,0-4.751,6.71.625.625,0,0,0,.625.625h13a.625.625,0,0,0,.625-.625A7.131,7.131,0,0,0,309.033,110.093Zm-5-3.04a2.625,2.625,0,0,1,5.25,0A2.625,2.625,0,0,1,304.034,107.053Zm-3.217,9.125c.876-6.944,10.811-6.939,11.684,0Z" />
          <path
             id="path136"
             transform="translate(-11.264 -14.765)"
             d="M324.033,96.093a3.865,3.865,0,1,0-4.748,0,7.131,7.131,0,0,0-4.751,6.71.625.625,0,0,0,.625.625h13a.625.625,0,0,0,.625-.625A7.131,7.131,0,0,0,324.033,96.093Zm-5-3.04a2.625,2.625,0,0,1,5.25,0A2.625,2.625,0,0,1,319.034,93.053Zm-3.217,9.125c.876-6.944,10.811-6.939,11.684,0Z" />
          <path
             id="path138"
             transform="translate(-11.264 -14.765)"
             d="M301.916,104.383a.628.628,0,0,0,.48-1.16A.628.628,0,0,0,301.916,104.383Z" />
          <path
             id="path140"
             transform="translate(-11.264 -14.765)"
             d="M302.286,101.952a.627.627,0,0,0,.25-1.229.616.616,0,0,0-.73.49H301.8A.635.635,0,0,0,302.286,101.952Z" />
          <path
             id="path142"
             transform="translate(-11.264 -14.765)"
             d="M302.916,99.553a.627.627,0,0,0,.5-1.15A.627.627,0,0,0,302.916,99.553Z" />
          <path
             id="path144"
             transform="translate(-11.264 -14.765)"
             d="M308.016,94.113a.62.62,0,0,0,.32-.09v.009a.628.628,0,1,0-.32.081Z" />
          <path
             id="path146"
             transform="translate(-11.264 -14.765)"
             d="M312.677,92.513a.622.622,0,1,0-.081-1.24A.622.622,0,0,0,312.677,92.513Z" />
          <path
             id="path148"
             transform="translate(-11.264 -14.765)"
             d="M310.266,93.072a.621.621,0,1,0-.21-1.209A.621.621,0,0,0,310.266,93.072Z" />
          <path
             id="path150"
             transform="translate(-11.264 -14.765)"
             d="M306.036,95.593c1.153-.093.488-1.791-.43-1.08A.628.628,0,0,0,306.036,95.593Z" />
          <path
             id="path152"
             transform="translate(-11.264 -14.765)"
             d="M304.4,97.452a.611.611,0,0,0,.5-.259h.01a.627.627,0,1,0-.51.259Z" />
          <path
             id="path154"
             transform="translate(-11.264 -14.765)"
             d="M314.717,92.282c.571.579,1.468-.309.879-.879A.622.622,0,0,0,314.717,92.282Z" />
          <path
             id="path156"
             transform="translate(-11.264 -14.765)"
             d="M326.6,105.363a.622.622,0,0,0-.879.879A.622.622,0,0,0,326.6,105.363Z" />
          <path
             id="path158"
             transform="translate(-11.264 -14.765)"
             d="M323.816,110.1a.624.624,0,0,0,1.04.69A.624.624,0,0,0,323.816,110.1Z" />
          <path
             id="path160"
             transform="translate(-11.264 -14.765)"
             d="M322.316,111.952c-.592.556.323,1.474.88.881C323.789,112.278,322.872,111.359,322.316,111.952Z" />
          <path
             id="path162"
             transform="translate(-11.264 -14.765)"
             d="M325.717,107.643a.622.622,0,0,0-.451,1.16A.622.622,0,0,0,325.717,107.643Z" />
          <path
             id="path164"
             transform="translate(-11.264 -14.765)"
             d="M318.356,114.543a.629.629,0,0,0,.46,1.17A.629.629,0,0,0,318.356,114.543Z" />
          <path
             id="path166"
             transform="translate(-11.264 -14.765)"
             d="M320.467,113.452a.629.629,0,0,0,.689,1.051A.629.629,0,0,0,320.467,113.452Z" />
          <path
             id="path168"
             transform="translate(-11.264 -14.765)"
             d="M316.6,115.363c-.563-.586-1.461.305-.879.879A.622.622,0,0,0,316.6,115.363Z" />
        </g>
      </g>
    </g>
    <g
       id="g202">
      <path
         id="path176"
         transform="translate(-11.264 -14.765)"
         d="M169.505,54.28h1.959l2.689,7h-1.859l-.58-1.669h-2.558l-.59,1.669h-1.789Zm1.749,4-.809-2.319-.82,2.319Z"
         class="cls-9" />
      <path
         id="path178"
         transform="translate(-11.264 -14.765)"
         d="M174.767,59.6V56.118h1.619v3.008a.859.859,0,0,0,.86.96,1.043,1.043,0,0,0,.859-.429V56.118h1.619v5.158h-1.619v-.84a1.906,1.906,0,0,1-1.629.92A1.667,1.667,0,0,1,174.767,59.6Z"
         class="cls-9" />
      <path
         id="path180"
         transform="translate(-11.264 -14.765)"
         d="M181.666,59.716V57.367h-1V56.118h1V54.689l1.619-.329v1.758h1.38v1.249h-1.38V59.4c0,.459.18.619.679.619a2.19,2.19,0,0,0,.66-.109v1.308a4.493,4.493,0,0,1-1.109.16C182.3,61.375,181.666,60.816,181.666,59.716Z"
         class="cls-9" />
      <path
         id="path182"
         transform="translate(-11.264 -14.765)"
         d="M185.336,58.707a2.689,2.689,0,1,1,2.689,2.668A2.624,2.624,0,0,1,185.336,58.707Zm3.8,0a1.126,1.126,0,1,0-1.109,1.319A1.18,1.18,0,0,0,189.134,58.707Z"
         class="cls-9" />
      <path
         id="path184"
         transform="translate(-11.264 -14.765)"
         d="M191.747,56.118h1.619v.82a1.769,1.769,0,0,1,1.529-.9,1.527,1.527,0,0,1,1.449.959,1.949,1.949,0,0,1,1.689-.959,1.652,1.652,0,0,1,1.619,1.809v3.429h-1.619V58.167a.772.772,0,0,0-.77-.859.9.9,0,0,0-.749.39v3.578H194.9V58.167a.772.772,0,0,0-.77-.859.928.928,0,0,0-.759.4v3.569h-1.619Z"
         class="cls-9" />
      <path
         id="path186"
         transform="translate(-11.264 -14.765)"
         d="M200.636,59.8c0-.949.74-1.5,2.01-1.5a3.358,3.358,0,0,1,1.2.24v-.42c0-.5-.33-.75-1.019-.75a3.848,3.848,0,0,0-1.45.361l-.559-1.13a5.7,5.7,0,0,1,2.368-.56c1.43,0,2.259.71,2.259,1.939v3.3h-1.6v-.451a2.055,2.055,0,0,1-1.429.531A1.606,1.606,0,0,1,200.636,59.8Zm2.28.49a1.761,1.761,0,0,0,.929-.26v-.659a3.817,3.817,0,0,0-.889-.111c-.531,0-.831.181-.831.51S202.416,60.286,202.916,60.286Z"
         class="cls-9" />
      <path
         id="path188"
         transform="translate(-11.264 -14.765)"
         d="M207.346,59.716V57.367h-1V56.118h1V54.689l1.619-.329v1.758h1.379v1.249h-1.379V59.4c0,.459.18.619.68.619a2.189,2.189,0,0,0,.659-.109v1.308a4.5,4.5,0,0,1-1.109.16C207.976,61.375,207.346,60.816,207.346,59.716Z"
         class="cls-9" />
      <path
         id="path190"
         transform="translate(-11.264 -14.765)"
         d="M211.146,54.419a.91.91,0,1,1,.91.909A.912.912,0,0,1,211.146,54.419Zm.1,1.7h1.618v5.158h-1.618Z"
         class="cls-9" />
      <path
         id="path192"
         transform="translate(-11.264 -14.765)"
         d="M213.9,58.707a2.689,2.689,0,1,1,2.688,2.668A2.623,2.623,0,0,1,213.9,58.707Zm3.8,0a1.126,1.126,0,1,0-1.11,1.319A1.18,1.18,0,0,0,217.694,58.707Z"
         class="cls-9" />
      <path
         id="path194"
         transform="translate(-11.264 -14.765)"
         d="M220.306,56.118h1.619v.839a1.9,1.9,0,0,1,1.629-.919,1.667,1.667,0,0,1,1.709,1.759v3.479h-1.619V58.267a.859.859,0,0,0-.859-.959,1.043,1.043,0,0,0-.86.43v3.538h-1.619Z"
         class="cls-9" />
      <path
         id="path196"
         transform="translate(-11.264 -14.765)"
         d="M227.666,63.365v-1.23a2.049,2.049,0,0,0,.451.04c.359,0,.519-.14.519-.439V56.118h1.619v5.687a1.573,1.573,0,0,1-1.789,1.659A2.992,2.992,0,0,1,227.666,63.365Zm.871-8.946a.909.909,0,1,1,.909.909A.912.912,0,0,1,228.537,54.419Z"
         class="cls-9" />
      <path
         id="path198"
         transform="translate(-11.264 -14.765)"
         d="M231.287,58.707a2.689,2.689,0,1,1,2.688,2.668A2.623,2.623,0,0,1,231.287,58.707Zm3.8,0a1.126,1.126,0,1,0-1.109,1.319A1.18,1.18,0,0,0,235.084,58.707Z"
         class="cls-9" />
      <path
         id="path200"
         transform="translate(-11.264 -14.765)"
         d="M237.7,54.159l1.619-.25v2.869a1.948,1.948,0,0,1,1.509-.69,2.458,2.458,0,0,1,2.279,2.619,2.486,2.486,0,0,1-2.4,2.6,1.807,1.807,0,0,1-1.41-.659v.63h-1.6Zm3.818,4.538a1.219,1.219,0,0,0-1.229-1.269,1.251,1.251,0,0,0-.97.419v1.72a1.331,1.331,0,0,0,.97.409A1.216,1.216,0,0,0,241.514,58.7Z"
         class="cls-9" />
    </g>
    <g
       id="g228">
      <path
         id="path204"
         transform="translate(-11.264 -14.765)"
         d="M153,30.476a3.674,3.674,0,0,1,6.527-2.249l-1.159,1.1a2.037,2.037,0,0,0-1.68-.929,2.086,2.086,0,0,0,0,4.157,2.04,2.04,0,0,0,1.68-.929l1.159,1.1A3.674,3.674,0,0,1,153,30.476Z"
         class="cls-9" />
      <path
         id="path206"
         transform="translate(-11.264 -14.765)"
         d="M160.151,31.406a2.689,2.689,0,1,1,2.687,2.668A2.622,2.622,0,0,1,160.151,31.406Zm3.8,0a1.126,1.126,0,1,0-1.11,1.318A1.18,1.18,0,0,0,163.948,31.406Z"
         class="cls-9" />
      <path
         id="path208"
         transform="translate(-11.264 -14.765)"
         d="M166.561,28.817h1.618v.839a1.9,1.9,0,0,1,1.63-.919,1.666,1.666,0,0,1,1.709,1.758v3.479H169.9V30.965a.859.859,0,0,0-.859-.959,1.043,1.043,0,0,0-.861.43v3.538h-1.618Z"
         class="cls-9" />
      <path
         id="path210"
         transform="translate(-11.264 -14.765)"
         d="M173.419,32.414V30.066h-1V28.817h1v-1.43l1.62-.329v1.759h1.379v1.249h-1.379V32.1c0,.459.18.619.679.619a2.149,2.149,0,0,0,.659-.109v1.308a4.486,4.486,0,0,1-1.109.161C174.049,34.074,173.419,33.514,173.419,32.414Z"
         class="cls-9" />
      <path
         id="path212"
         transform="translate(-11.264 -14.765)"
         d="M177.321,28.817h1.618v1.169c.33-.86.79-1.27,1.4-1.27a1.1,1.1,0,0,1,.539.131v1.389a1.762,1.762,0,0,0-.758-.161,1.427,1.427,0,0,0-1.18.64v3.259h-1.618Z"
         class="cls-9" />
      <path
         id="path214"
         transform="translate(-11.264 -14.765)"
         d="M181.51,31.406a2.689,2.689,0,1,1,2.689,2.668A2.623,2.623,0,0,1,181.51,31.406Zm3.8,0a1.126,1.126,0,1,0-1.109,1.318A1.18,1.18,0,0,0,185.308,31.406Z"
         class="cls-9" />
      <path
         id="path216"
         transform="translate(-11.264 -14.765)"
         d="M187.92,26.858l1.62-.25v7.366h-1.62Z"
         class="cls-9" />
      <path
         id="path218"
         transform="translate(-11.264 -14.765)"
         d="M192.95,28.817h1.6v.719a1.9,1.9,0,0,1,1.53-.75,2.458,2.458,0,0,1,2.278,2.62,2.486,2.486,0,0,1-2.4,2.6,1.8,1.8,0,0,1-1.389-.6v2.659H192.95Zm3.818,2.578a1.219,1.219,0,0,0-1.229-1.269,1.252,1.252,0,0,0-.97.419v1.72a1.328,1.328,0,0,0,.97.409A1.215,1.215,0,0,0,196.768,31.4Z"
         class="cls-9" />
      <path
         id="path220"
         transform="translate(-11.264 -14.765)"
         d="M199.39,26.858l1.618-.25v7.366H199.39Z"
         class="cls-9" />
      <path
         id="path222"
         transform="translate(-11.264 -14.765)"
         d="M202.03,32.494c0-.949.74-1.5,2.01-1.5a3.365,3.365,0,0,1,1.2.241v-.42c0-.5-.33-.75-1.02-.75a3.84,3.84,0,0,0-1.449.36l-.561-1.13a5.71,5.71,0,0,1,2.37-.559c1.429,0,2.258.71,2.258,1.938v3.3h-1.6v-.45a2.057,2.057,0,0,1-1.43.53A1.605,1.605,0,0,1,202.03,32.494Zm2.279.491a1.765,1.765,0,0,0,.93-.261v-.659a3.827,3.827,0,0,0-.891-.111c-.529,0-.829.181-.829.51S203.809,32.985,204.309,32.985Z"
         class="cls-9" />
      <path
         id="path224"
         transform="translate(-11.264 -14.765)"
         d="M208.06,28.817h1.618v.839a1.9,1.9,0,0,1,1.63-.919,1.666,1.666,0,0,1,1.709,1.758v3.479H211.4V30.965a.859.859,0,0,0-.859-.959,1.045,1.045,0,0,0-.861.43v3.538H208.06Z"
         class="cls-9" />
      <path
         id="path226"
         transform="translate(-11.264 -14.765)"
         d="M214.01,31.406a2.585,2.585,0,0,1,2.6-2.669,2.531,2.531,0,0,1,2.539,2.728v.35H215.6a1.238,1.238,0,0,0,1.21.969,1.279,1.279,0,0,0,1.02-.429l1.069.889a3.009,3.009,0,0,1-2.169.83A2.666,2.666,0,0,1,214.01,31.406Zm3.637-.51A1.082,1.082,0,0,0,216.6,30a1.016,1.016,0,0,0-1,.9Z"
         class="cls-9" />
    </g>
    <g
       id="g272">
      <g
         id="g234">
        <rect
           id="rect230"
           height="78.37"
           width="78.37"
           y="57.023"
           x="155.993"
           class="cls-7" />
        <path
           id="path232"
           transform="translate(-11.264 -14.765)"
           d="M245.127,72.288v77.37h-77.37V72.288h77.37m1-1h-79.37v79.37h79.37V71.288Z"
           class="cls-8" />
      </g>
      <g
         id="g270">
        <g
           id="g258">
          <path
             id="path236"
             transform="translate(-11.264 -14.765)"
             d="M179.517,128.868l.65-.878a3.507,3.507,0,0,0,2.359,1.019c.919,0,1.558-.47,1.558-1.12,0-.569-.338-.839-1.268-1l-1.29-.22c-1.209-.22-1.8-.819-1.8-1.779,0-1.27,1.01-2.108,2.579-2.108a4.665,4.665,0,0,1,2.809.9l-.611.9a3.664,3.664,0,0,0-2.238-.809c-.84,0-1.4.429-1.4,1,0,.51.32.769,1.079.889l1.25.21c1.409.25,2.068.87,2.068,1.929,0,1.29-1.14,2.2-2.808,2.2A4.406,4.406,0,0,1,179.517,128.868Z"
             class="cls-9" />
          <path
             id="path238"
             transform="translate(-11.264 -14.765)"
             d="M186.118,127.39a2.472,2.472,0,0,1,2.438-2.589,2.407,2.407,0,0,1,2.368,2.589v.269h-3.7a1.533,1.533,0,0,0,1.5,1.4,1.67,1.67,0,0,0,1.19-.47l.739.669a2.9,2.9,0,0,1-1.979.731A2.541,2.541,0,0,1,186.118,127.39Zm3.737-.43a1.361,1.361,0,0,0-1.309-1.239,1.345,1.345,0,0,0-1.309,1.239Z"
             class="cls-9" />
          <path
             id="path240"
             transform="translate(-11.264 -14.765)"
             d="M192.078,122.722l1.129-.2v7.365h-1.129Z"
             class="cls-9" />
          <path
             id="path242"
             transform="translate(-11.264 -14.765)"
             d="M195.277,125.781H194.2v-.9h1.079v-.859a1.533,1.533,0,0,1,1.729-1.68,2.688,2.688,0,0,1,.749.09v.96a2.759,2.759,0,0,0-.6-.07c-.52,0-.749.23-.749.719v.84h1.348v.9h-1.348v4.107h-1.13Z"
             class="cls-9" />
          <path
             id="path244"
             transform="translate(-11.264 -14.765)"
             d="M200.507,129.309l.531-.75a2.9,2.9,0,0,0,1.608.569c.6,0,1.01-.279,1.01-.678,0-.311-.21-.471-.7-.571l-.88-.149c-.98-.181-1.45-.63-1.45-1.38,0-.94.77-1.549,1.939-1.549a3.606,3.606,0,0,1,1.97.6l-.531.75a2.71,2.71,0,0,0-1.508-.481c-.52,0-.86.221-.86.58,0,.32.18.46.7.55l.89.17c1,.18,1.48.64,1.48,1.389a1.84,1.84,0,0,1-2.05,1.63A3.357,3.357,0,0,1,200.507,129.309Z"
             class="cls-9" />
          <path
             id="path246"
             transform="translate(-11.264 -14.765)"
             d="M205.517,127.39a2.473,2.473,0,0,1,2.439-2.589,2.407,2.407,0,0,1,2.368,2.589v.269h-3.7a1.533,1.533,0,0,0,1.5,1.4,1.668,1.668,0,0,0,1.19-.47l.739.669a2.894,2.894,0,0,1-1.978.731A2.542,2.542,0,0,1,205.517,127.39Zm3.737-.43a1.36,1.36,0,0,0-1.308-1.239,1.345,1.345,0,0,0-1.31,1.239Z"
             class="cls-9" />
          <path
             id="path248"
             transform="translate(-11.264 -14.765)"
             d="M211.477,124.881h1.129v1.079a1.5,1.5,0,0,1,1.379-1.169,1.339,1.339,0,0,1,.49.1v.989a1.823,1.823,0,0,0-.62-.12,1.366,1.366,0,0,0-1.249.83v3.3h-1.129Z"
             class="cls-9" />
          <path
             id="path250"
             transform="translate(-11.264 -14.765)"
             d="M214.817,124.881h1.229l1.4,3.638,1.389-3.638h1.179l-2.058,5.007h-1.1Z"
             class="cls-9" />
          <path
             id="path252"
             transform="translate(-11.264 -14.765)"
             d="M220.687,123.172a.7.7,0,1,1,.7.69A.693.693,0,0,1,220.687,123.172Zm.13,1.709h1.129v5.007h-1.129Z"
             class="cls-9" />
          <path
             id="path254"
             transform="translate(-11.264 -14.765)"
             d="M223.117,127.39a2.527,2.527,0,0,1,2.529-2.589,2.7,2.7,0,0,1,2,.85l-.7.729a1.658,1.658,0,0,0-1.26-.59,1.609,1.609,0,0,0,0,3.2,1.681,1.681,0,0,0,1.26-.58l.7.719a2.7,2.7,0,0,1-2,.85A2.52,2.52,0,0,1,223.117,127.39Z"
             class="cls-9" />
          <path
             id="path256"
             transform="translate(-11.264 -14.765)"
             d="M228.347,127.39a2.473,2.473,0,0,1,2.439-2.589,2.407,2.407,0,0,1,2.368,2.589v.269h-3.7a1.532,1.532,0,0,0,1.5,1.4,1.668,1.668,0,0,0,1.189-.47l.739.669a2.892,2.892,0,0,1-1.978.731A2.542,2.542,0,0,1,228.347,127.39Zm3.737-.43a1.36,1.36,0,0,0-1.308-1.239,1.345,1.345,0,0,0-1.31,1.239Z"
             class="cls-9" />
        </g>
        <g
           id="g268">
          <path
             id="path260"
             transform="translate(-11.264 -14.765)"
             d="M219.752,89.178h-26a.625.625,0,0,0-.625.625v6a.625.625,0,0,0,.625.625h8a.625.625,0,0,0,0-1.25h-7.375v-4.75h24.75v4.75h-8.375a.625.625,0,0,0,0,1.25h9a.626.626,0,0,0,.625-.625v-6A.626.626,0,0,0,219.752,89.178Z" />
          <path
             id="path262"
             transform="translate(-11.264 -14.765)"
             d="M195.688,104.178h-1.311v-4.75h7.375a.625.625,0,0,0,0-1.25h-8a.625.625,0,0,0-.625.625v6a.625.625,0,0,0,.625.625h1.936A.625.625,0,0,0,195.688,104.178Z" />
          <path
             id="path264"
             transform="translate(-11.264 -14.765)"
             d="M219.752,98.178h-9a.625.625,0,0,0,0,1.25h9A.625.625,0,0,0,219.752,98.178Z" />
          <path
             id="path266"
             transform="translate(-11.264 -14.765)"
             d="M216.887,103.192l-8.51-1.891v-6a2.125,2.125,0,0,0-4.25,0v10.532c-1.1-1.409-2.535-2.815-3.875-2.815a2.123,2.123,0,0,0-1.219,3.863,2.844,2.844,0,0,1,1.1,2.009c1.64,10.578,16.946,9.687,17.243-1.089v-4A.626.626,0,0,0,216.887,103.192Zm-.76,4.611c-.222,9.208-13.4,9.959-14.755.922a4.1,4.1,0,0,0-1.622-2.87.876.876,0,0,1,.5-1.585c.888,0,2.485,1.556,3.974,3.871a.629.629,0,0,0,1.151-.338V95.3a.875.875,0,0,1,1.75,0v6.5a.625.625,0,0,0,.489.61l8.511,1.891Z" />
        </g>
      </g>
    </g>
    <g
       id="g278">
      <line
         id="line274"
         y2="96.208"
         x2="257.827"
         y1="96.208"
         x1="234.863"
         class="cls-10" />
      <polygon
         id="polygon276"
         points="256.733 99.948 263.209 96.208 256.733 92.468 256.733 99.948"
         class="cls-9" />
    </g>
    <g
       id="g284">
      <line
         id="line280"
         y2="96.208"
         x2="365.544"
         y1="96.208"
         x1="342.579"
         class="cls-10" />
      <polygon
         id="polygon282"
         points="364.449 99.948 370.926 96.208 364.449 92.468 364.449 99.948"
         class="cls-9" />
    </g>
    <g
       id="g290">
      <polyline
         id="polyline286"
         points="410.921 136.186 410.921 157.426 195.178 157.426 195.178 141.568"
         class="cls-10" />
      <polygon
         id="polygon288"
         points="198.918 142.662 195.178 136.186 191.438 142.662 198.918 142.662"
         class="cls-9" />
    </g>
    <g
       id="g352">
      <g
         id="g296">
        <rect
           id="rect292"
           height="78.37"
           width="78.37"
           y="57.023"
           x="371.426"
           class="cls-7" />
        <path
           id="path294"
           transform="translate(-11.264 -14.765)"
           d="M460.56,72.288v77.37H383.19V72.288h77.37m1-1H382.19v79.37h79.37V71.288Z"
           class="cls-8" />
      </g>
      <g
         id="g344">
        <path
           id="path298"
           transform="translate(-11.264 -14.765)"
           d="M395.82,116.473h3.108a2.126,2.126,0,0,1,2.339,2.118,1.984,1.984,0,0,1-1.389,1.919l1.479,2.959h-1.329l-1.35-2.8H397.02v2.8h-1.2Zm3,3.238a1.121,1.121,0,1,0,0-2.229h-1.8v2.229Z"
           class="cls-9" />
        <path
           id="path300"
           transform="translate(-11.264 -14.765)"
           d="M402.17,120.97a2.515,2.515,0,1,1,2.519,2.589A2.495,2.495,0,0,1,402.17,120.97Zm3.918,0a1.42,1.42,0,1,0-1.4,1.629A1.485,1.485,0,0,0,406.088,120.97Z"
           class="cls-9" />
        <path
           id="path302"
           transform="translate(-11.264 -14.765)"
           d="M408.371,116.3l1.128-.2v7.366h-1.128Z"
           class="cls-9" />
        <path
           id="path304"
           transform="translate(-11.264 -14.765)"
           d="M410.661,120.97a2.472,2.472,0,0,1,2.438-2.589,2.407,2.407,0,0,1,2.369,2.589v.27h-3.7a1.533,1.533,0,0,0,1.5,1.4,1.666,1.666,0,0,0,1.189-.47l.74.67a2.9,2.9,0,0,1-1.979.73A2.541,2.541,0,0,1,410.661,120.97Zm3.737-.43a1.362,1.362,0,0,0-1.309-1.239,1.345,1.345,0,0,0-1.309,1.239Z"
           class="cls-9" />
        <path
           id="path306"
           transform="translate(-11.264 -14.765)"
           d="M416.48,120.151h3.488v.959H416.48Z"
           class="cls-9" />
        <path
           id="path308"
           transform="translate(-11.264 -14.765)"
           d="M421.24,116.332l1.13-.189v2.988a1.95,1.95,0,0,1,1.539-.71,2.564,2.564,0,0,1-.071,5.1,1.9,1.9,0,0,1-1.489-.69v.64H421.24Zm3.818,4.638a1.514,1.514,0,0,0-1.489-1.6,1.482,1.482,0,0,0-1.2.56v2.089a1.544,1.544,0,0,0,1.2.559A1.511,1.511,0,0,0,425.058,120.97Z"
           class="cls-9" />
        <path
           id="path310"
           transform="translate(-11.264 -14.765)"
           d="M427.09,122.03c0-.9.74-1.469,1.919-1.469a2.939,2.939,0,0,1,1.349.319v-.559c0-.661-.38-1-1.15-1a3.47,3.47,0,0,0-1.459.39l-.4-.82a4.948,4.948,0,0,1,2.078-.51c1.31,0,2.049.66,2.049,1.819v3.269h-1.119v-.519a2.027,2.027,0,0,1-1.489.609A1.6,1.6,0,0,1,427.09,122.03Zm2.089.729a1.744,1.744,0,0,0,1.179-.42v-.809a2.575,2.575,0,0,0-1.15-.24c-.649,0-1.059.27-1.059.72S428.549,122.759,429.179,122.759Z"
           class="cls-9" />
        <path
           id="path312"
           transform="translate(-11.264 -14.765)"
           d="M432.4,122.889l.53-.749a2.912,2.912,0,0,0,1.609.569c.6,0,1.009-.28,1.009-.679,0-.31-.21-.47-.7-.57l-.88-.15c-.979-.18-1.449-.63-1.449-1.379,0-.939.77-1.55,1.938-1.55a3.594,3.594,0,0,1,1.97.6l-.53.749a2.711,2.711,0,0,0-1.509-.48c-.519,0-.859.22-.859.579,0,.321.179.46.7.55l.89.17c1,.181,1.479.64,1.479,1.39a1.839,1.839,0,0,1-2.049,1.629A3.355,3.355,0,0,1,432.4,122.889Z"
           class="cls-9" />
        <path
           id="path314"
           transform="translate(-11.264 -14.765)"
           d="M437.41,120.97a2.472,2.472,0,0,1,2.438-2.589,2.407,2.407,0,0,1,2.369,2.589v.27h-3.7a1.533,1.533,0,0,0,1.5,1.4,1.664,1.664,0,0,0,1.189-.47l.741.67a2.9,2.9,0,0,1-1.98.73A2.541,2.541,0,0,1,437.41,120.97Zm3.738-.43a1.363,1.363,0,0,0-1.31-1.239,1.344,1.344,0,0,0-1.308,1.239Z"
           class="cls-9" />
        <path
           id="path316"
           transform="translate(-11.264 -14.765)"
           d="M443.14,120.97a2.426,2.426,0,0,1,2.339-2.549,1.918,1.918,0,0,1,1.459.651V116.3l1.129-.2v7.366h-1.119v-.66a1.952,1.952,0,0,1-1.549.71A2.4,2.4,0,0,1,443.14,120.97Zm3.8,1.05v-2.11a1.556,1.556,0,0,0-1.189-.539,1.6,1.6,0,0,0,0,3.2A1.474,1.474,0,0,0,446.938,122.02Z"
           class="cls-9" />
        <path
           id="path318"
           transform="translate(-11.264 -14.765)"
           d="M388.766,134.03c0-.9.739-1.469,1.919-1.469a2.939,2.939,0,0,1,1.349.319v-.559c0-.661-.38-1-1.15-1a3.462,3.462,0,0,0-1.459.39l-.4-.82a4.948,4.948,0,0,1,2.078-.51c1.31,0,2.049.66,2.049,1.819v3.269h-1.119v-.519a2.03,2.03,0,0,1-1.49.609A1.6,1.6,0,0,1,388.766,134.03Zm2.089.729a1.744,1.744,0,0,0,1.179-.42v-.809a2.578,2.578,0,0,0-1.15-.24c-.649,0-1.059.27-1.059.72S390.225,134.759,390.855,134.759Z"
           class="cls-9" />
        <path
           id="path320"
           transform="translate(-11.264 -14.765)"
           d="M394.3,132.97a2.527,2.527,0,0,1,2.53-2.589,2.708,2.708,0,0,1,2,.85l-.7.729a1.658,1.658,0,0,0-1.259-.589,1.608,1.608,0,0,0,0,3.2,1.682,1.682,0,0,0,1.259-.58l.7.719a2.7,2.7,0,0,1-2,.85A2.521,2.521,0,0,1,394.3,132.97Z"
           class="cls-9" />
        <path
           id="path322"
           transform="translate(-11.264 -14.765)"
           d="M399.526,132.97a2.526,2.526,0,0,1,2.528-2.589,2.712,2.712,0,0,1,2,.85l-.7.729a1.66,1.66,0,0,0-1.26-.589,1.608,1.608,0,0,0,0,3.2,1.684,1.684,0,0,0,1.26-.58l.7.719a2.708,2.708,0,0,1-2,.85A2.52,2.52,0,0,1,399.526,132.97Z"
           class="cls-9" />
        <path
           id="path324"
           transform="translate(-11.264 -14.765)"
           d="M404.755,132.97a2.473,2.473,0,0,1,2.439-2.589,2.407,2.407,0,0,1,2.369,2.589v.27h-3.7a1.533,1.533,0,0,0,1.5,1.4,1.666,1.666,0,0,0,1.189-.47l.74.67a2.9,2.9,0,0,1-1.979.73A2.542,2.542,0,0,1,404.755,132.97Zm3.739-.43a1.363,1.363,0,0,0-1.31-1.239,1.344,1.344,0,0,0-1.309,1.239Z"
           class="cls-9" />
        <path
           id="path326"
           transform="translate(-11.264 -14.765)"
           d="M410.266,134.889l.529-.749a2.92,2.92,0,0,0,1.61.569c.6,0,1.009-.28,1.009-.679,0-.31-.209-.47-.7-.57l-.88-.15c-.979-.18-1.449-.63-1.449-1.379,0-.939.77-1.55,1.94-1.55a3.593,3.593,0,0,1,1.968.6l-.529.749a2.714,2.714,0,0,0-1.51-.48c-.519,0-.859.22-.859.579,0,.321.18.46.7.55l.889.17c1,.181,1.479.64,1.479,1.39a1.839,1.839,0,0,1-2.048,1.629A3.353,3.353,0,0,1,410.266,134.889Z"
           class="cls-9" />
        <path
           id="path328"
           transform="translate(-11.264 -14.765)"
           d="M415.055,134.889l.53-.749a2.915,2.915,0,0,0,1.609.569c.6,0,1.01-.28,1.01-.679,0-.31-.21-.47-.7-.57l-.88-.15c-.979-.18-1.449-.63-1.449-1.379,0-.939.77-1.55,1.939-1.55a3.594,3.594,0,0,1,1.969.6l-.53.749a2.711,2.711,0,0,0-1.509-.48c-.519,0-.859.22-.859.579,0,.321.18.46.7.55l.89.17c1,.181,1.479.64,1.479,1.39a1.838,1.838,0,0,1-2.048,1.629A3.356,3.356,0,0,1,415.055,134.889Z"
           class="cls-9" />
        <path
           id="path330"
           transform="translate(-11.264 -14.765)"
           d="M422.315,132.97a2.527,2.527,0,0,1,2.529-2.589,2.706,2.706,0,0,1,2,.85l-.7.729a1.656,1.656,0,0,0-1.259-.589,1.608,1.608,0,0,0,0,3.2,1.681,1.681,0,0,0,1.259-.58l.7.719a2.7,2.7,0,0,1-2,.85A2.521,2.521,0,0,1,422.315,132.97Z"
           class="cls-9" />
        <path
           id="path332"
           transform="translate(-11.264 -14.765)"
           d="M427.545,132.97a2.515,2.515,0,1,1,2.519,2.589A2.495,2.495,0,0,1,427.545,132.97Zm3.918,0a1.42,1.42,0,1,0-1.4,1.629A1.485,1.485,0,0,0,431.463,132.97Z"
           class="cls-9" />
        <path
           id="path334"
           transform="translate(-11.264 -14.765)"
           d="M433.745,130.461h1.129v.821a1.825,1.825,0,0,1,1.58-.9,1.691,1.691,0,0,1,1.749,1.789v3.3h-1.14v-2.978a1.079,1.079,0,0,0-1.1-1.2,1.246,1.246,0,0,0-1.089.61v3.568h-1.129Z"
           class="cls-9" />
        <path
           id="path336"
           transform="translate(-11.264 -14.765)"
           d="M440.184,134.169v-2.808h-1v-.9h1v-1.379l1.13-.24v1.619H442.7v.9h-1.389v2.558c0,.49.189.68.7.68a2.114,2.114,0,0,0,.68-.119v.949a3.554,3.554,0,0,1-.97.14C440.714,135.569,440.184,135.089,440.184,134.169Z"
           class="cls-9" />
        <path
           id="path338"
           transform="translate(-11.264 -14.765)"
           d="M443.705,130.461h1.129v1.08a1.5,1.5,0,0,1,1.379-1.17,1.34,1.34,0,0,1,.49.1v.989a1.8,1.8,0,0,0-.62-.12,1.365,1.365,0,0,0-1.249.829v3.3h-1.129Z"
           class="cls-9" />
        <path
           id="path340"
           transform="translate(-11.264 -14.765)"
           d="M447.405,132.97a2.515,2.515,0,1,1,2.518,2.589A2.494,2.494,0,0,1,447.405,132.97Zm3.918,0a1.42,1.42,0,1,0-1.4,1.629A1.486,1.486,0,0,0,451.323,132.97Z"
           class="cls-9" />
        <path
           id="path342"
           transform="translate(-11.264 -14.765)"
           d="M453.6,128.3l1.13-.2v7.366H453.6Z"
           class="cls-9" />
      </g>
      <g
         id="g350">
        <path
           id="path346"
           transform="translate(-11.264 -14.765)"
           d="M435.185,107.269h-7.459a2.625,2.625,0,1,0,0,1.25h2.834v1.375a.625.625,0,0,0,1.25,0v-1.375h.75v1.375a.625.625,0,0,0,1.25,0v-1.375h.75v.375a.625.625,0,0,0,1.25,0v-1A.625.625,0,0,0,435.185,107.269Z" />
        <path
           id="path348"
           transform="translate(-11.264 -14.765)"
           d="M422.185,96.519a12.339,12.339,0,0,1,11.778,8.568.625.625,0,0,0,1.19-.385,13.578,13.578,0,0,0-9.628-9.018,7.126,7.126,0,1,0-6.657.011,13.636,13.636,0,0,0-10.308,13.2.625.625,0,0,0,.625.625h11a.625.625,0,0,0,0-1.25H409.826A12.39,12.39,0,0,1,422.185,96.519Zm-5.875-7.125a5.875,5.875,0,1,1,5.875,5.875A5.882,5.882,0,0,1,416.31,89.394Z" />
      </g>
    </g>
  </g>
  <g
     data-name="Layer 7"
     id="Layer_7">
    <g
       id="g359">
      <line
         id="line355"
         y2="302.256"
         x2="303.052"
         y1="232.971"
         x1="303.052"
         class="cls-10" />
      <polygon
         id="polygon357"
         points="299.313 301.161 303.052 307.638 306.792 301.161 299.313 301.161"
         class="cls-9" />
    </g>
  </g>
  <g
     data-name="Layer 6"
     id="Layer_6">
    <g
       id="g366">
      <line
         id="line362"
         y2="372.53"
         x2="526.27"
         y1="372.53"
         x1="479.065"
         class="cls-10" />
      <polygon
         id="polygon364"
         points="525.176 376.27 531.652 372.53 525.176 368.79 525.176 376.27"
         class="cls-9" />
    </g>
    <g
       id="g372">
      <polyline
         id="polyline368"
         points="479.065 372.53 504.889 372.53 504.889 280.347 525.848 280.347"
         class="cls-10" />
      <polygon
         id="polygon370"
         points="524.754 284.087 531.23 280.347 524.754 276.607 524.754 284.087"
         class="cls-9" />
    </g>
    <g
       id="g378">
      <polyline
         id="polyline374"
         points="479.065 372.53 504.889 372.53 504.889 188.129 525.848 188.129"
         class="cls-10" />
      <polygon
         id="polygon376"
         points="524.754 191.868 531.23 188.129 524.754 184.389 524.754 191.868"
         class="cls-9" />
    </g>
    <g
       id="g384">
      <polyline
         id="polyline380"
         points="479.065 372.53 504.889 372.53 504.889 96.208 525.848 96.208"
         class="cls-10" />
      <polygon
         id="polygon382"
         points="524.754 99.948 531.23 96.208 524.754 92.468 524.754 99.948"
         class="cls-9" />
    </g>
  </g>
  <g
     data-name="Layer 5"
     id="Layer_5">
    <g
       id="g391">
      <polyline
         id="polyline387"
         points="79.37 372.53 101.519 372.53 101.519 96.208 121.195 96.208"
         class="cls-10" />
      <polygon
         id="polygon389"
         points="120.101 99.948 126.578 96.208 120.101 92.468 120.101 99.948"
         class="cls-9" />
    </g>
    <g
       id="g397">
      <polyline
         id="polyline393"
         points="79.37 238.845 101.519 238.845 101.519 96.208 121.195 96.208"
         class="cls-10" />
      <polygon
         id="polygon395"
         points="120.101 99.948 126.578 96.208 120.101 92.468 120.101 99.948"
         class="cls-9" />
    </g>
    <g
       id="g403">
      <line
         id="line399"
         y2="96.208"
         x2="121.195"
         y1="96.208"
         x1="79.37"
         class="cls-10" />
      <polygon
         id="polygon401"
         points="120.101 99.948 126.578 96.208 120.101 92.468 120.101 99.948"
         class="cls-9" />
    </g>
  </g>
  <g
     data-name="Layer 3"
     id="Layer_3">
    <path
       id="path406"
       transform="translate(-11.264 -14.765)"
       d="M138.411,322.97h351.5V451.62h-351.5Z"
       class="cls-11" />
    <path
       id="path408"
       transform="translate(-11.264 -14.765)"
       d="M152.817,351.716H475.734v85.731H152.817Z"
       class="cls-6" />
    <g
       id="g438">
      <path
         id="path410"
         transform="translate(-11.264 -14.765)"
         d="M153.331,334.287h5.287v1.439h-3.569v1.33h2.519v1.4h-2.519v1.391h3.608v1.438h-5.326Z"
         class="cls-9" />
      <path
         id="path412"
         transform="translate(-11.264 -14.765)"
         d="M161.26,338.656l-1.869-2.53h1.869l.959,1.389.959-1.389h1.8l-1.9,2.559,1.959,2.6h-1.879l-1.02-1.469-1.019,1.469h-1.789Z"
         class="cls-9" />
      <path
         id="path414"
         transform="translate(-11.264 -14.765)"
         d="M165.541,338.715a2.585,2.585,0,0,1,2.6-2.669,2.532,2.532,0,0,1,2.539,2.729v.349h-3.549a1.238,1.238,0,0,0,1.209.97,1.274,1.274,0,0,0,1.02-.43l1.07.89a3.007,3.007,0,0,1-2.17.83A2.667,2.667,0,0,1,165.541,338.715Zm3.637-.51a1.081,1.081,0,0,0-1.049-.9,1.016,1.016,0,0,0-1,.9Z"
         class="cls-9" />
      <path
         id="path416"
         transform="translate(-11.264 -14.765)"
         d="M171.46,338.715a2.626,2.626,0,0,1,2.669-2.669,2.793,2.793,0,0,1,2.149.949l-.99.991a1.348,1.348,0,0,0-1.1-.561,1.3,1.3,0,0,0,0,2.579,1.351,1.351,0,0,0,1.1-.559l.99.989a2.791,2.791,0,0,1-2.149.95A2.626,2.626,0,0,1,171.46,338.715Z"
         class="cls-9" />
      <path
         id="path418"
         transform="translate(-11.264 -14.765)"
         d="M177.041,339.605v-3.479h1.619v3.008a.858.858,0,0,0,.859.96,1.04,1.04,0,0,0,.859-.43v-3.538H182v5.157h-1.62v-.838a1.9,1.9,0,0,1-1.629.919A1.666,1.666,0,0,1,177.041,339.605Z"
         class="cls-9" />
      <path
         id="path420"
         transform="translate(-11.264 -14.765)"
         d="M183.94,339.724v-2.348h-1v-1.25h1V334.7l1.619-.33v1.759h1.379v1.25h-1.379v2.029c0,.46.18.62.68.62a2.173,2.173,0,0,0,.659-.111v1.31a4.5,4.5,0,0,1-1.109.16C184.569,341.384,183.94,340.824,183.94,339.724Z"
         class="cls-9" />
      <path
         id="path422"
         transform="translate(-11.264 -14.765)"
         d="M187.741,334.427a.909.909,0,1,1,.908.91A.911.911,0,0,1,187.741,334.427Zm.1,1.7h1.619v5.157H187.84Z"
         class="cls-9" />
      <path
         id="path424"
         transform="translate(-11.264 -14.765)"
         d="M190.491,338.715a2.689,2.689,0,1,1,2.687,2.669A2.623,2.623,0,0,1,190.491,338.715Zm3.8,0a1.126,1.126,0,1,0-1.11,1.319A1.179,1.179,0,0,0,194.288,338.715Z"
         class="cls-9" />
      <path
         id="path426"
         transform="translate(-11.264 -14.765)"
         d="M196.9,336.126h1.618v.84a1.905,1.905,0,0,1,1.63-.92,1.668,1.668,0,0,1,1.709,1.76v3.477h-1.619v-3.008a.859.859,0,0,0-.86-.959,1.042,1.042,0,0,0-.86.429v3.538H196.9Z"
         class="cls-9" />
      <path
         id="path428"
         transform="translate(-11.264 -14.765)"
         d="M205.23,336.126h1.6v.72a1.9,1.9,0,0,1,1.529-.749,2.457,2.457,0,0,1,2.279,2.618,2.488,2.488,0,0,1-2.4,2.6,1.8,1.8,0,0,1-1.391-.6v2.658H205.23Zm3.817,2.578a1.219,1.219,0,0,0-1.228-1.268,1.251,1.251,0,0,0-.971.419v1.72a1.332,1.332,0,0,0,.971.409A1.215,1.215,0,0,0,209.047,338.7Z"
         class="cls-9" />
      <path
         id="path430"
         transform="translate(-11.264 -14.765)"
         d="M211.67,334.167l1.619-.25v7.366H211.67Z"
         class="cls-9" />
      <path
         id="path432"
         transform="translate(-11.264 -14.765)"
         d="M214.309,339.8c0-.949.74-1.5,2.01-1.5a3.358,3.358,0,0,1,1.2.24v-.42c0-.5-.33-.749-1.019-.749a3.844,3.844,0,0,0-1.45.36l-.559-1.129a5.686,5.686,0,0,1,2.368-.561c1.43,0,2.26.71,2.26,1.94v3.3h-1.6v-.45a2.048,2.048,0,0,1-1.43.531A1.606,1.606,0,0,1,214.309,339.8Zm2.279.49a1.759,1.759,0,0,0,.93-.26v-.66a3.87,3.87,0,0,0-.89-.109c-.53,0-.829.18-.829.51S216.088,340.294,216.588,340.294Z"
         class="cls-9" />
      <path
         id="path434"
         transform="translate(-11.264 -14.765)"
         d="M220.34,336.126h1.618v.84a1.906,1.906,0,0,1,1.63-.92,1.668,1.668,0,0,1,1.709,1.76v3.477h-1.619v-3.008a.859.859,0,0,0-.859-.959,1.042,1.042,0,0,0-.861.429v3.538H220.34Z"
         class="cls-9" />
      <path
         id="path436"
         transform="translate(-11.264 -14.765)"
         d="M226.29,338.715a2.585,2.585,0,0,1,2.6-2.669,2.532,2.532,0,0,1,2.538,2.729v.349h-3.548a1.238,1.238,0,0,0,1.209.97,1.275,1.275,0,0,0,1.02-.43l1.069.89a3,3,0,0,1-2.169.83A2.667,2.667,0,0,1,226.29,338.715Zm3.638-.51a1.082,1.082,0,0,0-1.05-.9,1.014,1.014,0,0,0-1,.9Z"
         class="cls-9" />
    </g>
    <g
       id="g482">
      <path
         id="path440"
         transform="translate(-11.264 -14.765)"
         d="M167.538,361.559h5.287V363h-3.569v1.33h2.519v1.4h-2.519v1.39h3.608v1.439h-5.326Z"
         class="cls-9" />
      <path
         id="path442"
         transform="translate(-11.264 -14.765)"
         d="M175.466,365.926,173.6,363.4h1.869l.96,1.388.959-1.388h1.8l-1.9,2.558,1.959,2.6h-1.879l-1.02-1.47-1.019,1.47h-1.789Z"
         class="cls-9" />
      <path
         id="path444"
         transform="translate(-11.264 -14.765)"
         d="M179.748,365.987a2.585,2.585,0,0,1,2.6-2.669,2.531,2.531,0,0,1,2.538,2.728v.35h-3.548a1.238,1.238,0,0,0,1.209.97,1.28,1.28,0,0,0,1.02-.43l1.069.889a3.007,3.007,0,0,1-2.169.83A2.666,2.666,0,0,1,179.748,365.987Zm3.637-.51a1.082,1.082,0,0,0-1.05-.9,1.016,1.016,0,0,0-1,.9Z"
         class="cls-9" />
      <path
         id="path446"
         transform="translate(-11.264 -14.765)"
         d="M185.667,365.987a2.625,2.625,0,0,1,2.668-2.669,2.8,2.8,0,0,1,2.15.949l-.99.989a1.35,1.35,0,0,0-1.1-.559,1.3,1.3,0,0,0,0,2.579,1.348,1.348,0,0,0,1.1-.56l.99.989a2.794,2.794,0,0,1-2.15.95A2.625,2.625,0,0,1,185.667,365.987Z"
         class="cls-9" />
      <path
         id="path448"
         transform="translate(-11.264 -14.765)"
         d="M191.248,366.875V363.4h1.619v3.008a.859.859,0,0,0,.859.96,1.041,1.041,0,0,0,.859-.43V363.4h1.62v5.157h-1.62v-.84a1.9,1.9,0,0,1-1.628.92A1.666,1.666,0,0,1,191.248,366.875Z"
         class="cls-9" />
      <path
         id="path450"
         transform="translate(-11.264 -14.765)"
         d="M198.146,367v-2.348h-1V363.4h1v-1.43l1.619-.329V363.4h1.38v1.249h-1.38v2.029c0,.459.181.619.68.619a2.163,2.163,0,0,0,.66-.109v1.308a4.5,4.5,0,0,1-1.109.161C198.776,368.655,198.146,368.1,198.146,367Z"
         class="cls-9" />
      <path
         id="path452"
         transform="translate(-11.264 -14.765)"
         d="M201.947,361.7a.91.91,0,1,1,.909.909A.913.913,0,0,1,201.947,361.7Zm.1,1.7h1.619v5.157h-1.619Z"
         class="cls-9" />
      <path
         id="path454"
         transform="translate(-11.264 -14.765)"
         d="M204.7,365.987a2.689,2.689,0,1,1,2.688,2.668A2.623,2.623,0,0,1,204.7,365.987Zm3.8,0a1.126,1.126,0,1,0-1.11,1.318A1.18,1.18,0,0,0,208.5,365.987Z"
         class="cls-9" />
      <path
         id="path456"
         transform="translate(-11.264 -14.765)"
         d="M211.107,363.4h1.619v.839a1.9,1.9,0,0,1,1.629-.919,1.666,1.666,0,0,1,1.709,1.758v3.479h-1.619v-3.009a.859.859,0,0,0-.86-.959,1.042,1.042,0,0,0-.859.43v3.538h-1.619Z"
         class="cls-9" />
      <path
         id="path458"
         transform="translate(-11.264 -14.765)"
         d="M219.207,365.987a2.585,2.585,0,0,1,2.6-2.669,2.531,2.531,0,0,1,2.539,2.728v.35H220.8a1.24,1.24,0,0,0,1.21.97,1.281,1.281,0,0,0,1.02-.43l1.069.889a3.01,3.01,0,0,1-2.169.83A2.666,2.666,0,0,1,219.207,365.987Zm3.637-.51a1.082,1.082,0,0,0-1.049-.9,1.017,1.017,0,0,0-1,.9Z"
         class="cls-9" />
      <path
         id="path460"
         transform="translate(-11.264 -14.765)"
         d="M225.357,363.4h1.618v.839a1.9,1.9,0,0,1,1.63-.919,1.666,1.666,0,0,1,1.709,1.758v3.479H228.7v-3.009a.859.859,0,0,0-.86-.959,1.044,1.044,0,0,0-.86.43v3.538h-1.618Z"
         class="cls-9" />
      <path
         id="path462"
         transform="translate(-11.264 -14.765)"
         d="M230.977,363.4h1.759l1.17,3.238,1.178-3.238h1.669l-2.108,5.157h-1.579Z"
         class="cls-9" />
      <path
         id="path464"
         transform="translate(-11.264 -14.765)"
         d="M237.357,361.7a.909.909,0,1,1,.909.909A.912.912,0,0,1,237.357,361.7Zm.1,1.7h1.619v5.157h-1.619Z"
         class="cls-9" />
      <path
         id="path466"
         transform="translate(-11.264 -14.765)"
         d="M240.336,363.4h1.62v1.169c.33-.86.789-1.27,1.4-1.27a1.1,1.1,0,0,1,.539.131v1.389a1.767,1.767,0,0,0-.759-.16,1.424,1.424,0,0,0-1.179.639v3.259h-1.62Z"
         class="cls-9" />
      <path
         id="path468"
         transform="translate(-11.264 -14.765)"
         d="M244.527,365.987a2.689,2.689,0,1,1,2.688,2.668A2.623,2.623,0,0,1,244.527,365.987Zm3.8,0a1.126,1.126,0,1,0-1.11,1.318A1.18,1.18,0,0,0,248.325,365.987Z"
         class="cls-9" />
      <path
         id="path470"
         transform="translate(-11.264 -14.765)"
         d="M250.936,363.4h1.619v.839a1.9,1.9,0,0,1,1.629-.919,1.666,1.666,0,0,1,1.709,1.758v3.479h-1.619v-3.009a.859.859,0,0,0-.859-.959,1.043,1.043,0,0,0-.86.43v3.538h-1.619Z"
         class="cls-9" />
      <path
         id="path472"
         transform="translate(-11.264 -14.765)"
         d="M257.117,363.4h1.618v.819a1.769,1.769,0,0,1,1.529-.9,1.527,1.527,0,0,1,1.449.959,1.951,1.951,0,0,1,1.69-.959,1.652,1.652,0,0,1,1.619,1.808v3.429H263.4v-3.108a.772.772,0,0,0-.77-.86.9.9,0,0,0-.75.39v3.578h-1.619v-3.108a.772.772,0,0,0-.769-.86.927.927,0,0,0-.76.4v3.568h-1.618Z"
         class="cls-9" />
      <path
         id="path474"
         transform="translate(-11.264 -14.765)"
         d="M266.016,365.987a2.585,2.585,0,0,1,2.6-2.669,2.531,2.531,0,0,1,2.539,2.728v.35h-3.549a1.238,1.238,0,0,0,1.21.97,1.278,1.278,0,0,0,1.019-.43l1.07.889a3.01,3.01,0,0,1-2.169.83A2.666,2.666,0,0,1,266.016,365.987Zm3.638-.51a1.083,1.083,0,0,0-1.049-.9,1.016,1.016,0,0,0-1,.9Z"
         class="cls-9" />
      <path
         id="path476"
         transform="translate(-11.264 -14.765)"
         d="M272.166,363.4h1.619v.839a1.9,1.9,0,0,1,1.63-.919,1.666,1.666,0,0,1,1.709,1.758v3.479H275.5v-3.009a.858.858,0,0,0-.859-.959,1.042,1.042,0,0,0-.86.43v3.538h-1.619Z"
         class="cls-9" />
      <path
         id="path478"
         transform="translate(-11.264 -14.765)"
         d="M279.026,367v-2.348h-1V363.4h1v-1.43l1.619-.329V363.4h1.379v1.249h-1.379v2.029c0,.459.18.619.68.619a2.157,2.157,0,0,0,.659-.109v1.308a4.5,4.5,0,0,1-1.11.161C279.656,368.655,279.026,368.1,279.026,367Z"
         class="cls-9" />
      <path
         id="path480"
         transform="translate(-11.264 -14.765)"
         d="M282.506,368.025l.709-1.079a3.349,3.349,0,0,0,1.659.519c.46,0,.741-.16.741-.42,0-.2-.151-.309-.481-.369l-.989-.181c-1-.189-1.52-.7-1.52-1.5,0-1.048.81-1.678,2.16-1.678a4.142,4.142,0,0,1,2.1.59l-.739,1.029a2.916,2.916,0,0,0-1.479-.44c-.39,0-.62.13-.62.35s.13.3.53.369l.969.181c1.02.189,1.549.709,1.549,1.489a1.984,1.984,0,0,1-2.219,1.769A4.213,4.213,0,0,1,282.506,368.025Z"
         class="cls-9" />
    </g>
    <g
       id="g496">
      <path
         id="path484"
         transform="translate(-11.264 -14.765)"
         d="M167.258,380.256h42.52v42.52h-42.52Z"
         class="cls-12" />
      <g
         id="g494">
        <path
           id="path486"
           transform="translate(-11.264 -14.765)"
           d="M201.518,387.9h-26a.619.619,0,0,0-.62.62v26a.62.62,0,0,0,.62.62h26a.621.621,0,0,0,.62-.62h0v-26a.62.62,0,0,0-.62-.62Zm-.62,26h-24.76v-24.76H200.9Z" />
        <path
           id="path488"
           transform="translate(-11.264 -14.765)"
           d="M187.758,405.056a.62.62,0,0,0,.737-.475l0-.015,1.24-5.84a.639.639,0,0,0-.48-.75.63.63,0,0,0-.735.5l0,.036-1.25,5.84A.64.64,0,0,0,187.758,405.056Z" />
        <path
           id="path490"
           transform="translate(-11.264 -14.765)"
           d="M193.638,401.516l-2.12,2.11a.63.63,0,1,0,.777.992.621.621,0,0,0,.1-.1l2.56-2.56a.62.62,0,0,0,.013-.877l-.013-.013-2.56-2.55a.63.63,0,1,0-1.019.74.6.6,0,0,0,.139.14Z" />
        <path
           id="path492"
           transform="translate(-11.264 -14.765)"
           d="M184.638,404.516a.63.63,0,0,0,.88-.89l-2.12-2.11,2.12-2.13c.59-.56-.31-1.46-.88-.88l-2.56,2.56a.618.618,0,0,0-.013.876l.013.014Z" />
      </g>
    </g>
    <g
       id="g510">
      <path
         id="path498"
         transform="translate(-11.264 -14.765)"
         d="M230.076,380.256H272.6v42.52h-42.52Z"
         class="cls-12" />
      <g
         id="g508">
        <path
           id="path500"
           transform="translate(-11.264 -14.765)"
           d="M264.336,387.9h-26a.62.62,0,0,0-.62.62v26a.621.621,0,0,0,.62.62h26a.621.621,0,0,0,.62-.62h0v-26a.62.62,0,0,0-.62-.62Zm-.62,26h-24.76v-24.76h24.76Z" />
        <path
           id="path502"
           transform="translate(-11.264 -14.765)"
           d="M250.576,405.056a.62.62,0,0,0,.737-.475l0-.015,1.24-5.84a.639.639,0,0,0-.48-.75.629.629,0,0,0-.734.5l-.006.036-1.25,5.84A.64.64,0,0,0,250.576,405.056Z" />
        <path
           id="path504"
           transform="translate(-11.264 -14.765)"
           d="M256.456,401.516l-2.12,2.11a.63.63,0,1,0,.777.992.621.621,0,0,0,.1-.1l2.56-2.56a.62.62,0,0,0,.013-.877l-.013-.013-2.56-2.55a.63.63,0,1,0-.88.88Z" />
        <path
           id="path506"
           transform="translate(-11.264 -14.765)"
           d="M247.456,404.516a.63.63,0,0,0,.88-.89l-2.12-2.11,2.12-2.13c.59-.56-.31-1.46-.88-.88l-2.56,2.56a.618.618,0,0,0-.013.876l.013.014Z" />
      </g>
    </g>
    <g
       id="g524">
      <path
         id="path512"
         transform="translate(-11.264 -14.765)"
         d="M292.894,380.256h42.52v42.52h-42.52Z"
         class="cls-12" />
      <g
         id="g522">
        <path
           id="path514"
           transform="translate(-11.264 -14.765)"
           d="M327.154,387.9h-26a.62.62,0,0,0-.62.62v26a.621.621,0,0,0,.62.62h26a.62.62,0,0,0,.62-.62h0v-26a.619.619,0,0,0-.62-.62Zm-.62,26h-24.76v-24.76h24.76Z" />
        <path
           id="path516"
           transform="translate(-11.264 -14.765)"
           d="M313.394,405.056a.62.62,0,0,0,.737-.475l0-.015,1.24-5.84a.639.639,0,0,0-.48-.75.629.629,0,0,0-.734.5l-.006.036-1.25,5.84A.64.64,0,0,0,313.394,405.056Z" />
        <path
           id="path518"
           transform="translate(-11.264 -14.765)"
           d="M319.274,401.516l-2.12,2.11a.63.63,0,1,0,.777.992.621.621,0,0,0,.1-.1l2.56-2.56a.62.62,0,0,0,.013-.877l-.013-.013-2.56-2.55a.63.63,0,1,0-1.019.74.637.637,0,0,0,.139.14Z" />
        <path
           id="path520"
           transform="translate(-11.264 -14.765)"
           d="M310.274,404.516a.63.63,0,0,0,.88-.89l-2.12-2.11,2.12-2.13c.59-.56-.31-1.46-.88-.88l-2.56,2.56a.618.618,0,0,0-.013.876l.013.014Z" />
      </g>
    </g>
    <g
       id="g538">
      <path
         id="path526"
         transform="translate(-11.264 -14.765)"
         d="M355.712,380.256h42.52v42.52h-42.52Z"
         class="cls-12" />
      <g
         id="g536">
        <path
           id="path528"
           transform="translate(-11.264 -14.765)"
           d="M389.972,387.9h-26a.62.62,0,0,0-.62.62v26a.621.621,0,0,0,.62.62h26a.62.62,0,0,0,.62-.62h0v-26a.619.619,0,0,0-.62-.62Zm-.62,26h-24.76v-24.76h24.76Z" />
        <path
           id="path530"
           transform="translate(-11.264 -14.765)"
           d="M376.212,405.056a.62.62,0,0,0,.737-.475l0-.015,1.24-5.84a.639.639,0,0,0-.48-.75.629.629,0,0,0-.734.5l-.006.036-1.25,5.84A.64.64,0,0,0,376.212,405.056Z" />
        <path
           id="path532"
           transform="translate(-11.264 -14.765)"
           d="M382.092,401.516l-2.12,2.11a.63.63,0,0,0,.777.992.621.621,0,0,0,.1-.1l2.56-2.56a.621.621,0,0,0,.014-.877l-.014-.013-2.56-2.55a.63.63,0,1,0-1.019.74.637.637,0,0,0,.139.14Z" />
        <path
           id="path534"
           transform="translate(-11.264 -14.765)"
           d="M373.092,404.516a.63.63,0,0,0,.88-.89l-2.12-2.11,2.12-2.13c.59-.56-.31-1.46-.88-.88l-2.56,2.56a.619.619,0,0,0-.013.876l.013.014Z" />
      </g>
    </g>
    <g
       id="g552">
      <path
         id="path540"
         transform="translate(-11.264 -14.765)"
         d="M418.531,380.256H461.05v42.52H418.531Z"
         class="cls-12" />
      <g
         id="g550">
        <path
           id="path542"
           transform="translate(-11.264 -14.765)"
           d="M452.79,387.9h-26a.62.62,0,0,0-.62.62v26a.621.621,0,0,0,.62.62h26a.62.62,0,0,0,.62-.62h0v-26a.619.619,0,0,0-.62-.62Zm-.62,26H427.41v-24.76h24.76Z" />
        <path
           id="path544"
           transform="translate(-11.264 -14.765)"
           d="M439.03,405.056a.62.62,0,0,0,.737-.475l0-.015,1.24-5.84a.639.639,0,0,0-.48-.75.629.629,0,0,0-.734.5l-.006.036-1.25,5.84A.64.64,0,0,0,439.03,405.056Z" />
        <path
           id="path546"
           transform="translate(-11.264 -14.765)"
           d="M444.91,401.516l-2.12,2.11a.63.63,0,0,0,.777.992.621.621,0,0,0,.1-.1l2.56-2.56a.621.621,0,0,0,.014-.877l-.014-.013-2.56-2.55a.63.63,0,1,0-1.019.74.637.637,0,0,0,.139.14Z" />
        <path
           id="path548"
           transform="translate(-11.264 -14.765)"
           d="M435.91,404.516a.63.63,0,0,0,.88-.89l-2.12-2.11,2.12-2.13c.59-.56-.31-1.46-.88-.88l-2.56,2.56a.62.62,0,0,0-.013.876l.013.014Z" />
      </g>
    </g>
  </g>
  <g
     data-name="Layer 2"
     id="Layer_2">
    <g
       id="g573">
      <g
         id="g569">
        <g
           id="g565">
          <path
             id="path555"
             transform="translate(-11.264 -14.765)"
             d="M38.389,126.629v-4h1.2v4c0,1.23.68,2.029,1.74,2.029s1.738-.8,1.738-2.029v-4h1.2v4a2.943,2.943,0,1,1-5.876,0Z"
             class="cls-9" />
          <path
             id="path557"
             transform="translate(-11.264 -14.765)"
             d="M45.219,129.048l.53-.749a2.912,2.912,0,0,0,1.609.569c.6,0,1.009-.28,1.009-.679,0-.31-.209-.47-.7-.57l-.879-.15c-.98-.18-1.45-.63-1.45-1.379,0-.939.77-1.55,1.94-1.55a3.607,3.607,0,0,1,1.969.6l-.53.749a2.714,2.714,0,0,0-1.51-.48c-.519,0-.859.22-.859.58,0,.32.18.46.7.549l.89.17c1,.181,1.479.64,1.479,1.39a1.838,1.838,0,0,1-2.048,1.629A3.349,3.349,0,0,1,45.219,129.048Z"
             class="cls-9" />
          <path
             id="path559"
             transform="translate(-11.264 -14.765)"
             d="M50.229,127.129a2.473,2.473,0,0,1,2.438-2.589,2.407,2.407,0,0,1,2.369,2.589v.27h-3.7a1.533,1.533,0,0,0,1.5,1.4,1.668,1.668,0,0,0,1.19-.47l.739.67a2.893,2.893,0,0,1-1.978.73A2.541,2.541,0,0,1,50.229,127.129Zm3.737-.429a1.361,1.361,0,0,0-1.308-1.24,1.346,1.346,0,0,0-1.31,1.24Z"
             class="cls-9" />
          <path
             id="path561"
             transform="translate(-11.264 -14.765)"
             d="M56.189,124.62h1.129v1.08a1.5,1.5,0,0,1,1.379-1.169,1.319,1.319,0,0,1,.49.1v.989a1.8,1.8,0,0,0-.62-.12,1.365,1.365,0,0,0-1.249.829v3.3H56.189Z"
             class="cls-9" />
          <path
             id="path563"
             transform="translate(-11.264 -14.765)"
             d="M59.668,129.048l.531-.749a2.909,2.909,0,0,0,1.608.569c.6,0,1.01-.28,1.01-.679,0-.31-.21-.47-.7-.57l-.88-.15c-.98-.18-1.449-.63-1.449-1.379,0-.939.769-1.55,1.938-1.55a3.608,3.608,0,0,1,1.97.6l-.531.749a2.708,2.708,0,0,0-1.508-.48c-.52,0-.86.22-.86.58,0,.32.18.46.7.549l.889.17c1,.181,1.48.64,1.48,1.39a1.84,1.84,0,0,1-2.05,1.629A3.351,3.351,0,0,1,59.668,129.048Z"
             class="cls-9" />
        </g>
        <path
           id="path567"
           transform="translate(-11.264 -14.765)"
           d="M54.267,102.864c6.481-3.393,4.1-13.406-3.318-13.426-7.419.02-9.8,10.034-3.317,13.426a13.636,13.636,0,0,0-10.308,13.2.625.625,0,0,0,.625.625h26a.625.625,0,0,0,.625-.625A13.636,13.636,0,0,0,54.267,102.864Zm-9.193-6.3c.248-7.764,11.5-7.762,11.75,0C56.577,104.327,45.32,104.325,45.074,96.563ZM38.59,115.438c1.316-15.587,23.409-15.575,24.719,0Z" />
      </g>
      <path
         id="path571"
         transform="translate(-11.264 -14.765)"
         d="M89.634,72.288v77.37H12.264V72.288h77.37m1-1H11.264v79.37h79.37V71.288Z"
         class="cls-8" />
    </g>
    <g
       id="g625">
      <g
         id="g579">
        <rect
           id="rect575"
           height="78.37"
           width="78.37"
           y="57.364"
           x="531.881"
           class="cls-7" />
        <path
           id="path577"
           transform="translate(-11.264 -14.765)"
           d="M621.015,72.629V150h-77.37V72.629h77.37m1-1h-79.37V151h79.37V71.629Z"
           class="cls-8" />
      </g>
      <g
         id="g591">
        <path
           id="path581"
           transform="translate(-11.264 -14.765)"
           d="M595.33,105.779h-26a.625.625,0,0,0-.625.625v10a.625.625,0,0,0,.625.625h26a.625.625,0,0,0,.625-.625v-10A.625.625,0,0,0,595.33,105.779Zm-.625,10h-24.75v-8.75h24.75Z" />
        <path
           id="path583"
           transform="translate(-11.264 -14.765)"
           d="M573.33,112.029h6a.625.625,0,0,0,0-1.25h-6a.625.625,0,0,0,0,1.25Z" />
        <path
           id="path585"
           transform="translate(-11.264 -14.765)"
           d="M581.566,102.865a.625.625,0,0,0,.741-.481l1.245-5.85a.625.625,0,1,0-1.223-.259l-1.244,5.849A.623.623,0,0,0,581.566,102.865Z" />
        <path
           id="path587"
           transform="translate(-11.264 -14.765)"
           d="M585.325,102.327a.626.626,0,0,0,.885,0l2.562-2.563a.626.626,0,0,0,0-.883l-2.562-2.563c-.565-.58-1.466.317-.885.884l2.121,2.12-2.121,2.122A.625.625,0,0,0,585.325,102.327Z" />
        <path
           id="path589"
           transform="translate(-11.264 -14.765)"
           d="M578.45,102.327a.628.628,0,1,0,.885-.883l-2.121-2.122,2.121-2.12c.58-.565-.319-1.466-.885-.884l-2.563,2.563a.626.626,0,0,0,0,.883Z" />
      </g>
      <circle
         id="circle593"
         r="0.62"
         cy="96.638"
         cx="578.633" />
      <g
         id="g623">
        <path
           id="path595"
           transform="translate(-11.264 -14.765)"
           d="M550.285,122.974h1.2v7h-1.2Z"
           class="cls-9" />
        <path
           id="path597"
           transform="translate(-11.264 -14.765)"
           d="M552.975,124.962H554.1v.821a1.826,1.826,0,0,1,1.579-.9,1.691,1.691,0,0,1,1.749,1.789v3.3h-1.14v-2.978a1.078,1.078,0,0,0-1.1-1.2,1.246,1.246,0,0,0-1.09.61v3.568h-1.129Z"
           class="cls-9" />
        <path
           id="path599"
           transform="translate(-11.264 -14.765)"
           d="M559.475,125.862H558.4v-.9h1.08V124.1a1.533,1.533,0,0,1,1.729-1.68,2.706,2.706,0,0,1,.75.09v.96a2.768,2.768,0,0,0-.6-.069c-.521,0-.75.229-.75.718v.84h1.35v.9H560.6v4.108h-1.129Z"
           class="cls-9" />
        <path
           id="path601"
           transform="translate(-11.264 -14.765)"
           d="M562.905,124.962h1.13v1.08a1.5,1.5,0,0,1,1.379-1.17,1.338,1.338,0,0,1,.489.1v.99a1.794,1.794,0,0,0-.619-.121,1.364,1.364,0,0,0-1.249.83v3.3h-1.13Z"
           class="cls-9" />
        <path
           id="path603"
           transform="translate(-11.264 -14.765)"
           d="M566.575,128.531c0-.9.739-1.469,1.919-1.469a2.942,2.942,0,0,1,1.349.319v-.559c0-.661-.38-1-1.149-1a3.459,3.459,0,0,0-1.459.39l-.4-.82a4.957,4.957,0,0,1,2.08-.51c1.309,0,2.048.66,2.048,1.819v3.269h-1.119v-.52a2.024,2.024,0,0,1-1.489.61A1.6,1.6,0,0,1,566.575,128.531Zm2.089.729a1.742,1.742,0,0,0,1.179-.42v-.809a2.575,2.575,0,0,0-1.149-.241c-.65,0-1.06.27-1.06.721S568.034,129.26,568.664,129.26Z"
           class="cls-9" />
        <path
           id="path605"
           transform="translate(-11.264 -14.765)"
           d="M571.885,129.39l.53-.75a2.907,2.907,0,0,0,1.609.57c.6,0,1.009-.28,1.009-.679,0-.311-.209-.471-.7-.571l-.879-.149c-.98-.181-1.45-.63-1.45-1.38,0-.939.77-1.549,1.94-1.549a3.606,3.606,0,0,1,1.969.6l-.53.75a2.713,2.713,0,0,0-1.509-.481c-.52,0-.86.221-.86.58,0,.321.18.46.7.55l.89.17c1,.181,1.479.64,1.479,1.39a1.838,1.838,0,0,1-2.048,1.629A3.355,3.355,0,0,1,571.885,129.39Z"
           class="cls-9" />
        <path
           id="path607"
           transform="translate(-11.264 -14.765)"
           d="M577.745,128.67v-2.808h-1v-.9h1v-1.379l1.129-.24v1.619h1.389v.9h-1.389v2.558c0,.489.19.68.7.68a2.118,2.118,0,0,0,.679-.12v.949a3.554,3.554,0,0,1-.969.141C578.274,130.07,577.745,129.589,577.745,128.67Z"
           class="cls-9" />
        <path
           id="path609"
           transform="translate(-11.264 -14.765)"
           d="M581.264,124.962h1.13v1.08a1.5,1.5,0,0,1,1.379-1.17,1.338,1.338,0,0,1,.489.1v.99a1.794,1.794,0,0,0-.619-.121,1.364,1.364,0,0,0-1.249.83v3.3h-1.13Z"
           class="cls-9" />
        <path
           id="path611"
           transform="translate(-11.264 -14.765)"
           d="M585.154,128.261v-3.3h1.139v2.969a1.082,1.082,0,0,0,1.1,1.209,1.247,1.247,0,0,0,1.089-.6v-3.578h1.13v5.008h-1.13v-.811a1.808,1.808,0,0,1-1.589.891A1.693,1.693,0,0,1,585.154,128.261Z"
           class="cls-9" />
        <path
           id="path613"
           transform="translate(-11.264 -14.765)"
           d="M590.784,127.471a2.527,2.527,0,0,1,2.529-2.589,2.708,2.708,0,0,1,2,.85l-.7.729a1.658,1.658,0,0,0-1.26-.589,1.608,1.608,0,0,0,0,3.2,1.682,1.682,0,0,0,1.26-.579l.7.719a2.708,2.708,0,0,1-2,.85A2.521,2.521,0,0,1,590.784,127.471Z"
           class="cls-9" />
        <path
           id="path615"
           transform="translate(-11.264 -14.765)"
           d="M596.864,128.67v-2.808h-1v-.9h1v-1.379l1.129-.24v1.619h1.389v.9h-1.389v2.558c0,.489.19.68.7.68a2.123,2.123,0,0,0,.68-.12v.949a3.561,3.561,0,0,1-.97.141C597.393,130.07,596.864,129.589,596.864,128.67Z"
           class="cls-9" />
        <path
           id="path617"
           transform="translate(-11.264 -14.765)"
           d="M600.344,128.261v-3.3h1.139v2.969a1.082,1.082,0,0,0,1.1,1.209,1.246,1.246,0,0,0,1.09-.6v-3.578H604.8v5.008h-1.129v-.811a1.81,1.81,0,0,1-1.59.891A1.693,1.693,0,0,1,600.344,128.261Z"
           class="cls-9" />
        <path
           id="path619"
           transform="translate(-11.264 -14.765)"
           d="M606.2,124.962h1.129v1.08a1.5,1.5,0,0,1,1.379-1.17,1.339,1.339,0,0,1,.49.1v.99a1.8,1.8,0,0,0-.62-.121,1.365,1.365,0,0,0-1.249.83v3.3H606.2Z"
           class="cls-9" />
        <path
           id="path621"
           transform="translate(-11.264 -14.765)"
           d="M609.9,127.471a2.472,2.472,0,0,1,2.438-2.589,2.407,2.407,0,0,1,2.368,2.589v.27h-3.7a1.533,1.533,0,0,0,1.5,1.4,1.67,1.67,0,0,0,1.19-.47l.739.669a2.9,2.9,0,0,1-1.979.731A2.541,2.541,0,0,1,609.9,127.471Zm3.737-.43a1.362,1.362,0,0,0-1.309-1.239,1.345,1.345,0,0,0-1.309,1.239Z"
           class="cls-9" />
      </g>
    </g>
    <g
       id="g645">
      <g
         id="g641">
        <g
           id="g637">
          <path
             id="path627"
             transform="translate(-11.264 -14.765)"
             d="M38.389,264.8v-4h1.2v4c0,1.23.68,2.029,1.74,2.029s1.738-.8,1.738-2.029v-4h1.2v4a2.943,2.943,0,1,1-5.876,0Z"
             class="cls-9" />
          <path
             id="path629"
             transform="translate(-11.264 -14.765)"
             d="M45.219,267.22l.53-.749a2.912,2.912,0,0,0,1.609.569c.6,0,1.009-.28,1.009-.679,0-.31-.209-.47-.7-.57l-.879-.15c-.98-.18-1.45-.63-1.45-1.379,0-.939.77-1.55,1.94-1.55a3.6,3.6,0,0,1,1.969.6l-.53.749a2.714,2.714,0,0,0-1.51-.48c-.519,0-.859.22-.859.579,0,.321.18.46.7.55l.89.17c1,.181,1.479.64,1.479,1.39a1.838,1.838,0,0,1-2.048,1.629A3.355,3.355,0,0,1,45.219,267.22Z"
             class="cls-9" />
          <path
             id="path631"
             transform="translate(-11.264 -14.765)"
             d="M50.229,265.3a2.473,2.473,0,0,1,2.438-2.589,2.407,2.407,0,0,1,2.369,2.589v.27h-3.7a1.533,1.533,0,0,0,1.5,1.4,1.668,1.668,0,0,0,1.19-.47l.739.67a2.893,2.893,0,0,1-1.978.73A2.541,2.541,0,0,1,50.229,265.3Zm3.737-.43a1.361,1.361,0,0,0-1.308-1.239,1.345,1.345,0,0,0-1.31,1.239Z"
             class="cls-9" />
          <path
             id="path633"
             transform="translate(-11.264 -14.765)"
             d="M56.189,262.792h1.129v1.08A1.505,1.505,0,0,1,58.7,262.7a1.34,1.34,0,0,1,.49.1v.989a1.8,1.8,0,0,0-.62-.12,1.365,1.365,0,0,0-1.249.829v3.3H56.189Z"
             class="cls-9" />
          <path
             id="path635"
             transform="translate(-11.264 -14.765)"
             d="M59.668,267.22l.531-.749a2.909,2.909,0,0,0,1.608.569c.6,0,1.01-.28,1.01-.679,0-.31-.21-.47-.7-.57l-.88-.15c-.98-.18-1.449-.63-1.449-1.379,0-.939.769-1.55,1.938-1.55a3.6,3.6,0,0,1,1.97.6l-.531.749a2.708,2.708,0,0,0-1.508-.48c-.52,0-.86.22-.86.579,0,.321.18.46.7.55l.889.17c1,.181,1.48.64,1.48,1.39a1.84,1.84,0,0,1-2.05,1.629A3.357,3.357,0,0,1,59.668,267.22Z"
             class="cls-9" />
        </g>
        <path
           id="path639"
           transform="translate(-11.264 -14.765)"
           d="M54.267,241.035c6.481-3.392,4.1-13.4-3.318-13.425-7.419.02-9.8,10.034-3.317,13.425a13.638,13.638,0,0,0-10.308,13.2.625.625,0,0,0,.625.625h26a.625.625,0,0,0,.625-.625A13.638,13.638,0,0,0,54.267,241.035Zm-9.193-6.3c.248-7.764,11.5-7.763,11.75,0C56.577,242.5,45.32,242.5,45.074,234.735ZM38.59,253.61c1.316-15.588,23.409-15.576,24.719,0Z" />
      </g>
      <path
         id="path643"
         transform="translate(-11.264 -14.765)"
         d="M89.634,210.459V287.83H12.264V210.459h77.37m1-1H11.264V288.83h79.37V209.459Z"
         class="cls-8" />
    </g>
    <g
       id="g665">
      <g
         id="g661">
        <g
           id="g657">
          <path
             id="path647"
             transform="translate(-11.264 -14.765)"
             d="M38.389,402.973v-4h1.2v4c0,1.229.68,2.029,1.74,2.029s1.738-.8,1.738-2.029v-4h1.2v4a2.943,2.943,0,1,1-5.876,0Z"
             class="cls-9" />
          <path
             id="path649"
             transform="translate(-11.264 -14.765)"
             d="M45.219,405.392l.53-.75a2.9,2.9,0,0,0,1.609.569c.6,0,1.009-.279,1.009-.678,0-.311-.209-.471-.7-.571l-.879-.149c-.98-.181-1.45-.63-1.45-1.38,0-.94.77-1.549,1.94-1.549a3.606,3.606,0,0,1,1.969.6l-.53.75a2.716,2.716,0,0,0-1.51-.481c-.519,0-.859.221-.859.58,0,.32.18.46.7.55l.89.17c1,.18,1.479.64,1.479,1.389a1.838,1.838,0,0,1-2.048,1.63A3.355,3.355,0,0,1,45.219,405.392Z"
             class="cls-9" />
          <path
             id="path651"
             transform="translate(-11.264 -14.765)"
             d="M50.229,403.473a2.472,2.472,0,0,1,2.438-2.589,2.407,2.407,0,0,1,2.369,2.589v.269h-3.7a1.533,1.533,0,0,0,1.5,1.4,1.668,1.668,0,0,0,1.19-.47l.739.669a2.894,2.894,0,0,1-1.978.731A2.542,2.542,0,0,1,50.229,403.473Zm3.737-.43a1.36,1.36,0,0,0-1.308-1.239,1.345,1.345,0,0,0-1.31,1.239Z"
             class="cls-9" />
          <path
             id="path653"
             transform="translate(-11.264 -14.765)"
             d="M56.189,400.964h1.129v1.079a1.5,1.5,0,0,1,1.379-1.169,1.339,1.339,0,0,1,.49.1v.989a1.823,1.823,0,0,0-.62-.12,1.366,1.366,0,0,0-1.249.83v3.3H56.189Z"
             class="cls-9" />
          <path
             id="path655"
             transform="translate(-11.264 -14.765)"
             d="M59.668,405.392l.531-.75a2.9,2.9,0,0,0,1.608.569c.6,0,1.01-.279,1.01-.678,0-.311-.21-.471-.7-.571l-.88-.149c-.98-.181-1.449-.63-1.449-1.38,0-.94.769-1.549,1.938-1.549a3.606,3.606,0,0,1,1.97.6l-.531.75a2.71,2.71,0,0,0-1.508-.481c-.52,0-.86.221-.86.58,0,.32.18.46.7.55l.889.17c1,.18,1.48.64,1.48,1.389a1.84,1.84,0,0,1-2.05,1.63A3.357,3.357,0,0,1,59.668,405.392Z"
             class="cls-9" />
        </g>
        <path
           id="path659"
           transform="translate(-11.264 -14.765)"
           d="M54.267,379.207c6.481-3.393,4.1-13.406-3.318-13.426-7.419.021-9.8,10.035-3.317,13.426a13.637,13.637,0,0,0-10.308,13.2.625.625,0,0,0,.625.625h26a.624.624,0,0,0,.625-.625A13.637,13.637,0,0,0,54.267,379.207Zm-9.193-6.3c.248-7.764,11.5-7.762,11.75,0C56.577,380.67,45.32,380.669,45.074,372.906ZM38.59,391.781c1.316-15.587,23.409-15.575,24.719,0Z" />
      </g>
      <path
         id="path663"
         transform="translate(-11.264 -14.765)"
         d="M89.634,348.631V426H12.264v-77.37h77.37m1-1H11.264V427h79.37v-79.37Z"
         class="cls-8" />
    </g>
    <g
       id="g687">
      <g
         id="g671">
        <rect
           id="rect667"
           height="78.37"
           width="78.37"
           y="148.943"
           x="531.869"
           class="cls-7" />
        <path
           id="path669"
           transform="translate(-11.264 -14.765)"
           d="M621,164.209v77.37h-77.37v-77.37H621m1-1h-79.37v79.37H622v-79.37Z"
           class="cls-8" />
      </g>
      <g
         id="g683">
        <path
           id="path673"
           transform="translate(-11.264 -14.765)"
           d="M569.007,218.051a3.565,3.565,0,0,1,3.618-3.608,3.517,3.517,0,0,1,2.729,1.249l-.8.78a2.449,2.449,0,0,0-1.929-.95,2.533,2.533,0,0,0,0,5.057,2.451,2.451,0,0,0,1.929-.949l.8.779a3.51,3.51,0,0,1-2.729,1.249A3.565,3.565,0,0,1,569.007,218.051Z"
           class="cls-9" />
        <path
           id="path675"
           transform="translate(-11.264 -14.765)"
           d="M576.427,214.383l1.13-.2v7.366h-1.13Z"
           class="cls-9" />
        <path
           id="path677"
           transform="translate(-11.264 -14.765)"
           d="M578.717,219.05a2.515,2.515,0,1,1,2.519,2.589A2.5,2.5,0,0,1,578.717,219.05Zm3.918,0a1.42,1.42,0,1,0-1.4,1.629A1.485,1.485,0,0,0,582.635,219.05Z"
           class="cls-9" />
        <path
           id="path679"
           transform="translate(-11.264 -14.765)"
           d="M584.877,219.84v-3.3h1.139v2.969a1.082,1.082,0,0,0,1.1,1.209,1.248,1.248,0,0,0,1.09-.6v-3.578h1.128v5.008h-1.128v-.809a1.809,1.809,0,0,1-1.589.889A1.694,1.694,0,0,1,584.877,219.84Z"
           class="cls-9" />
        <path
           id="path681"
           transform="translate(-11.264 -14.765)"
           d="M590.507,219.05a2.426,2.426,0,0,1,2.339-2.549,1.917,1.917,0,0,1,1.459.651v-2.769l1.129-.2v7.366h-1.119v-.66a1.951,1.951,0,0,1-1.549.71A2.4,2.4,0,0,1,590.507,219.05Zm3.8,1.05v-2.109a1.554,1.554,0,0,0-1.189-.54,1.6,1.6,0,0,0,0,3.2A1.474,1.474,0,0,0,594.3,220.1Z"
           class="cls-9" />
      </g>
      <path
         id="path685"
         transform="translate(-11.264 -14.765)"
         d="M592.943,198.506v-.022a9.124,9.124,0,0,0-17.289-4.073,7.124,7.124,0,1,0-.836,14.2h17.5a.617.617,0,0,0,.259-.056,5.112,5.112,0,0,0,.366-10.047Zm-1.125,8.853h-17a5.875,5.875,0,0,1,0-11.75,5.959,5.959,0,0,1,1.088.1.622.622,0,0,0,.689-.365,7.874,7.874,0,0,1,15.1,3.135c0,.133-.01.264-.018.395l-.008.113a.624.624,0,0,0,.558.661,3.863,3.863,0,0,1-.407,7.706Z" />
    </g>
    <g
       id="g721">
      <g
         id="g693">
        <rect
           id="rect689"
           height="78.37"
           width="78.37"
           y="333.378"
           x="531.881"
           class="cls-7" />
        <path
           id="path691"
           transform="translate(-11.264 -14.765)"
           d="M621.015,348.644v77.37h-77.37v-77.37h77.37m1-1h-79.37v79.37h79.37v-79.37Z"
           class="cls-8" />
      </g>
      <g
         id="g719">
        <g
           id="g711">
          <path
             id="path695"
             transform="translate(-11.264 -14.765)"
             d="M563.015,404.986l.65-.879a3.5,3.5,0,0,0,2.358,1.019c.92,0,1.559-.469,1.559-1.119,0-.57-.339-.84-1.269-1l-1.289-.22c-1.209-.219-1.8-.819-1.8-1.778,0-1.269,1.009-2.109,2.578-2.109a4.663,4.663,0,0,1,2.809.9l-.61.9a3.668,3.668,0,0,0-2.239-.81c-.839,0-1.4.43-1.4,1,0,.51.319.77,1.079.891l1.249.209c1.409.25,2.069.869,2.069,1.929,0,1.289-1.139,2.2-2.808,2.2A4.406,4.406,0,0,1,563.015,404.986Z"
             class="cls-9" />
          <path
             id="path697"
             transform="translate(-11.264 -14.765)"
             d="M569.615,403.507a2.472,2.472,0,0,1,2.438-2.589,2.407,2.407,0,0,1,2.369,2.589v.27h-3.7a1.533,1.533,0,0,0,1.5,1.4,1.668,1.668,0,0,0,1.19-.47l.74.67a2.9,2.9,0,0,1-1.98.73A2.542,2.542,0,0,1,569.615,403.507Zm3.738-.43a1.362,1.362,0,0,0-1.31-1.239,1.344,1.344,0,0,0-1.308,1.239Z"
             class="cls-9" />
          <path
             id="path699"
             transform="translate(-11.264 -14.765)"
             d="M575.345,403.507a2.527,2.527,0,0,1,2.529-2.589,2.708,2.708,0,0,1,2,.85l-.7.729a1.658,1.658,0,0,0-1.259-.589,1.608,1.608,0,0,0,0,3.2,1.682,1.682,0,0,0,1.259-.58l.7.718a2.7,2.7,0,0,1-2,.85A2.52,2.52,0,0,1,575.345,403.507Z"
             class="cls-9" />
          <path
             id="path701"
             transform="translate(-11.264 -14.765)"
             d="M580.765,404.3V401H581.9v2.968a1.082,1.082,0,0,0,1.1,1.21,1.249,1.249,0,0,0,1.09-.6V401h1.129v5.007h-1.129V405.2a1.809,1.809,0,0,1-1.59.888A1.693,1.693,0,0,1,580.765,404.3Z"
             class="cls-9" />
          <path
             id="path703"
             transform="translate(-11.264 -14.765)"
             d="M586.624,401h1.13v1.079a1.5,1.5,0,0,1,1.379-1.169,1.34,1.34,0,0,1,.49.1V402a1.823,1.823,0,0,0-.62-.119,1.364,1.364,0,0,0-1.249.829v3.3h-1.13Z"
             class="cls-9" />
          <path
             id="path705"
             transform="translate(-11.264 -14.765)"
             d="M590.415,399.289a.7.7,0,0,1,.7-.7.709.709,0,0,1,.7.7.7.7,0,0,1-.7.69A.693.693,0,0,1,590.415,399.289Zm.129,1.709h1.129v5.007h-1.129Z"
             class="cls-9" />
          <path
             id="path707"
             transform="translate(-11.264 -14.765)"
             d="M593.694,404.706V401.9h-1V401h1v-1.38l1.13-.239V401h1.388v.9h-1.388v2.558c0,.491.189.68.7.68a2.114,2.114,0,0,0,.68-.119v.949a3.554,3.554,0,0,1-.97.14C594.224,406.106,593.694,405.626,593.694,404.706Z"
             class="cls-9" />
          <path
             id="path709"
             transform="translate(-11.264 -14.765)"
             d="M597.014,408.124v-.979a2.058,2.058,0,0,0,.44.04.808.808,0,0,0,.809-.569l.231-.56L596.6,401h1.25l1.279,3.708L600.522,401h1.239l-2.4,5.877a1.694,1.694,0,0,1-1.789,1.32A2.331,2.331,0,0,1,597.014,408.124Z"
             class="cls-9" />
        </g>
        <g
           id="g717">
          <path
             id="path713"
             transform="translate(-11.264 -14.765)"
             d="M595.021,368.124l-11-2.338a.6.6,0,0,0-.259,0l-11,2.338a.624.624,0,0,0-.495.611V381.4a11.625,11.625,0,0,0,23.25,0V368.735A.625.625,0,0,0,595.021,368.124Zm-.754,13.273a10.375,10.375,0,0,1-20.75,0V369.241l10.375-2.2,10.375,2.2Z" />
          <path
             id="path715"
             transform="translate(-11.264 -14.765)"
             d="M580.794,379.085a.625.625,0,0,0-.885.884l2.124,2.124a.626.626,0,0,0,.885,0l4.956-4.956a.625.625,0,0,0-.885-.884l-4.513,4.513Z" />
        </g>
      </g>
    </g>
    <g
       id="g771">
      <g
         id="g767">
        <g
           id="g727">
          <rect
             id="rect723"
             height="78.37"
             width="78.37"
             y="241.162"
             x="531.881"
             class="cls-7" />
          <path
             id="path725"
             transform="translate(-11.264 -14.765)"
             d="M621.015,256.427V333.8h-77.37v-77.37h77.37m1-1h-79.37V334.8h79.37v-79.37Z"
             class="cls-8" />
        </g>
        <g
           id="g765">
          <g
             id="g757">
            <path
               id="path729"
               transform="translate(-11.264 -14.765)"
               d="M563.094,301.77h1.17l3.648,5.087-.02-5.087h1.129v7h-1.069l-3.748-5.227.02,5.227h-1.13Z"
               class="cls-9" />
            <path
               id="path731"
               transform="translate(-11.264 -14.765)"
               d="M570.334,306.268a2.473,2.473,0,0,1,2.439-2.589,2.407,2.407,0,0,1,2.369,2.589v.269h-3.7a1.533,1.533,0,0,0,1.5,1.4,1.664,1.664,0,0,0,1.189-.47l.741.669a2.9,2.9,0,0,1-1.98.731A2.543,2.543,0,0,1,570.334,306.268Zm3.739-.43a1.362,1.362,0,0,0-1.31-1.239,1.343,1.343,0,0,0-1.308,1.239Z"
               class="cls-9" />
            <path
               id="path733"
               transform="translate(-11.264 -14.765)"
               d="M576.915,307.467v-2.809h-1v-.9h1v-1.38l1.128-.239v1.619h1.39v.9h-1.39v2.559c0,.489.191.68.7.68a2.118,2.118,0,0,0,.679-.12v.949a3.554,3.554,0,0,1-.969.141C577.444,308.867,576.915,308.386,576.915,307.467Z"
               class="cls-9" />
            <path
               id="path735"
               transform="translate(-11.264 -14.765)"
               d="M579.964,303.759h1.079l.88,3.528,1.039-3.528h.951l1.029,3.528.879-3.528h1.05l-1.35,5.007h-1.079l-1.02-3.527-1.008,3.527h-1.1Z"
               class="cls-9" />
            <path
               id="path737"
               transform="translate(-11.264 -14.765)"
               d="M587.565,306.268a2.515,2.515,0,1,1,2.518,2.588A2.494,2.494,0,0,1,587.565,306.268Zm3.918,0a1.42,1.42,0,1,0-1.4,1.629A1.486,1.486,0,0,0,591.483,306.268Z"
               class="cls-9" />
            <path
               id="path739"
               transform="translate(-11.264 -14.765)"
               d="M593.764,303.759h1.13v1.079a1.5,1.5,0,0,1,1.379-1.169,1.338,1.338,0,0,1,.489.1v.989a1.817,1.817,0,0,0-.619-.12,1.364,1.364,0,0,0-1.249.83v3.3h-1.13Z"
               class="cls-9" />
            <path
               id="path741"
               transform="translate(-11.264 -14.765)"
               d="M597.694,301.58l1.13-.19v4.5l2.078-2.129h1.3l-2.309,2.318,2.429,2.689h-1.44l-2.058-2.309v2.309h-1.13Z"
               class="cls-9" />
            <path
               id="path743"
               transform="translate(-11.264 -14.765)"
               d="M565.04,318.268a2.425,2.425,0,0,1,2.338-2.549,1.917,1.917,0,0,1,1.459.649V313.6l1.13-.2v7.365h-1.119v-.659a1.957,1.957,0,0,1-1.55.709A2.394,2.394,0,0,1,565.04,318.268Zm3.8,1.049v-2.109a1.551,1.551,0,0,0-1.189-.54,1.6,1.6,0,0,0,0,3.2A1.468,1.468,0,0,0,568.837,319.317Z"
               class="cls-9" />
            <path
               id="path745"
               transform="translate(-11.264 -14.765)"
               d="M571.139,318.268a2.473,2.473,0,0,1,2.439-2.589,2.407,2.407,0,0,1,2.369,2.589v.269h-3.7a1.533,1.533,0,0,0,1.5,1.4,1.666,1.666,0,0,0,1.189-.47l.74.669a2.9,2.9,0,0,1-1.979.731A2.542,2.542,0,0,1,571.139,318.268Zm3.738-.43a1.361,1.361,0,0,0-1.309-1.239,1.344,1.344,0,0,0-1.309,1.239Z"
               class="cls-9" />
            <path
               id="path747"
               transform="translate(-11.264 -14.765)"
               d="M576.51,315.759h1.23l1.4,3.638,1.39-3.638h1.179l-2.059,5.007h-1.1Z"
               class="cls-9" />
            <path
               id="path749"
               transform="translate(-11.264 -14.765)"
               d="M582.379,314.05a.7.7,0,1,1,.7.69A.694.694,0,0,1,582.379,314.05Zm.13,1.709h1.13v5.007h-1.13Z"
               class="cls-9" />
            <path
               id="path751"
               transform="translate(-11.264 -14.765)"
               d="M584.809,318.268a2.527,2.527,0,0,1,2.529-2.589,2.7,2.7,0,0,1,2,.85l-.7.729a1.653,1.653,0,0,0-1.26-.59,1.609,1.609,0,0,0,0,3.2,1.68,1.68,0,0,0,1.26-.58l.7.719a2.7,2.7,0,0,1-2,.85A2.52,2.52,0,0,1,584.809,318.268Z"
               class="cls-9" />
            <path
               id="path753"
               transform="translate(-11.264 -14.765)"
               d="M590.04,318.268a2.472,2.472,0,0,1,2.438-2.589,2.407,2.407,0,0,1,2.368,2.589v.269h-3.7a1.533,1.533,0,0,0,1.5,1.4,1.666,1.666,0,0,0,1.189-.47l.74.669a2.9,2.9,0,0,1-1.979.731A2.541,2.541,0,0,1,590.04,318.268Zm3.737-.43a1.361,1.361,0,0,0-1.309-1.239,1.345,1.345,0,0,0-1.309,1.239Z"
               class="cls-9" />
            <path
               id="path755"
               transform="translate(-11.264 -14.765)"
               d="M595.549,320.187l.531-.75a2.9,2.9,0,0,0,1.608.569c.6,0,1.01-.279,1.01-.679,0-.31-.21-.47-.7-.57l-.88-.149c-.98-.181-1.45-.63-1.45-1.38,0-.94.77-1.549,1.939-1.549a3.606,3.606,0,0,1,1.97.6l-.531.75a2.71,2.71,0,0,0-1.508-.481c-.52,0-.86.221-.86.58,0,.32.18.46.7.55l.89.17c1,.18,1.48.64,1.48,1.389a1.84,1.84,0,0,1-2.05,1.63A3.357,3.357,0,0,1,595.549,320.187Z"
               class="cls-9" />
          </g>
          <g
             id="g763">
            <path
               id="path759"
               transform="translate(-11.264 -14.765)"
               d="M578.747,277.546a.628.628,0,0,0-.774.427,14.708,14.708,0,0,0-.386,6.413.625.625,0,0,0,1.234-.2,13.45,13.45,0,0,1,.353-5.864A.625.625,0,0,0,578.747,277.546Z" />
            <path
               id="path761"
               transform="translate(-11.264 -14.765)"
               d="M589.4,267.82c-.009-.006-.02-.009-.03-.015-8.313-3.85-18.73,1.81-20.165,10.7,0,.009,0,.018,0,.028a14.055,14.055,0,0,0-.051,5.055.625.625,0,0,0,.04.263c1.956,11.343,16.315,16.015,24.527,7.882a.62.62,0,0,0,.117-.106,14.6,14.6,0,0,0-4.434-23.8Zm-18.983,11.017a13.372,13.372,0,0,1,18.494.057.625.625,0,1,0,.867-.9,14.642,14.642,0,0,0-18.795-1.26,13.288,13.288,0,0,1,15.989-8.43,14.929,14.929,0,0,0-1.737.771,14.691,14.691,0,0,0-2.669,1.8.625.625,0,0,0,.808.954,13.413,13.413,0,0,1,5.61-2.82,13.435,13.435,0,0,1,4.1,2.832,13.372,13.372,0,0,1-22.705,11.5A12.736,12.736,0,0,1,570.414,278.837Zm23.428,6.239a.625.625,0,0,0-1.215.3,13.222,13.222,0,0,1,.156,5.517,13.348,13.348,0,0,1-6.19,3.35,13.42,13.42,0,0,1-4.562-3.318.625.625,0,1,0-.934.831,14.622,14.622,0,0,0,3.407,2.8,13.37,13.37,0,0,1-13.626-9.118,14.607,14.607,0,0,0,23.6-11.908,13.424,13.424,0,0,1-.263,15.749A14.474,14.474,0,0,0,593.842,285.076Z" />
          </g>
        </g>
      </g>
      <circle
         id="circle769"
         r="0.62"
         cy="266.437"
         cx="572.301" />
    </g>
  </g>
</svg>
